<svg id="_7" data-name="7" xmlns="http://www.w3.org/2000/svg" width="68.086" height="59.202" viewBox="0 0 68.086 59.202">
  <path id="Path_7854" data-name="Path 7854" d="M-13.727,0V-1.05a5.337,5.337,0,0,1,.973-1.4q.595-.616,1.3-1.246.644-.588,1.022-.938A2.444,2.444,0,0,0-9.9-5.306a1.7,1.7,0,0,0,.161-.77q0-1.148-1.484-1.148a4.891,4.891,0,0,0-1.134.133,8.09,8.09,0,0,0-1.064.329V-8.708a7.639,7.639,0,0,1,1.281-.322,8.645,8.645,0,0,1,1.463-.126,3.332,3.332,0,0,1,2.408.8,2.969,2.969,0,0,1,.826,2.24,2.568,2.568,0,0,1-.378,1.407A5.983,5.983,0,0,1-8.953-3.458q-.56.476-1,.875a4.853,4.853,0,0,0-.749.847h3.346V0Zm11.2,0V-1.792H-6.769v-1.5l4.522-5.726H-.273v5.4h.84v1.82h-.84V0ZM-4.6-3.528h2.45v-3.01ZM1.169,0,4.445-9.268h2.31L3.479,0ZM8.253,0l3.094-7.28H7.483V-9.016h6.37v1.344L10.605,0Z" transform="translate(34.269 34.063)" fill="#4d4d4d"/>
  <g id="Group_3956" data-name="Group 3956">
    <path id="Path_5674" data-name="Path 5674" d="M1546.547,1192.92l-10.958-13.819-11.015,13.819h5.744a21.661,21.661,0,0,1-38.445-13.686h-7.261A28.915,28.915,0,0,0,1539,1192.92Z" transform="translate(-1478.462 -1148.947)" fill="#d80027"/>
    <path id="Path_5675" data-name="Path 5675" d="M1478.628,1125.087l11.015-13.819H1483.9a21.66,21.66,0,0,1,38.444,13.686h7.26a28.915,28.915,0,0,0-54.386-13.686h-7.55Z" transform="translate(-1467.67 -1096.039)" fill="#0155b6"/>
  </g>
</svg>
