<svg id="Tel_icon" data-name="Tel icon" xmlns="http://www.w3.org/2000/svg" width="97" height="97" viewBox="0 0 97 97">
  <g id="Group_4077" data-name="Group 4077" transform="translate(-1032 -1507)">
    <circle id="Ellipse_359" data-name="Ellipse 359" cx="48.5" cy="48.5" r="48.5" transform="translate(1032 1507)" fill="#fafafa"/>
    <circle id="Ellipse_358" data-name="Ellipse 358" cx="41.5" cy="41.5" r="41.5" transform="translate(1039 1514)" fill="#0052b4"/>
  </g>
  <g id="Page-1" transform="translate(25.457 30.15)">
    <g id="_003---Call" data-name="003---Call" transform="translate(-0.003)">
      <path id="Shape" d="M18.429,24.678A16.988,16.988,0,0,1,13.3,15.034a1.443,1.443,0,0,1,.414-1.208l3.251-3.25a1.451,1.451,0,0,0,.2-1.8L11.993.742a1.451,1.451,0,0,0-1.88-.529L1.8,4.127A1.443,1.443,0,0,0,1,5.569c.435,4.137,2.239,14.305,12.232,24.3s20.16,11.8,24.3,12.232a1.443,1.443,0,0,0,1.442-.8l3.914-8.31a1.451,1.451,0,0,0-.526-1.877l-8.038-5.175a1.451,1.451,0,0,0-1.8.2l-3.25,3.251a1.443,1.443,0,0,1-1.208.414,16.988,16.988,0,0,1-9.645-5.129Z" transform="translate(-0.997 -0.016)" fill="#fff"/>
      <path id="Shape-2" data-name="Shape" d="M41.789,25.24a1.451,1.451,0,0,1-1.451-1.451A10.9,10.9,0,0,0,29.451,12.9a1.451,1.451,0,0,1,0-2.9A13.8,13.8,0,0,1,43.24,23.789,1.451,1.451,0,0,1,41.789,25.24Z" transform="translate(-8.403 -2.743)" fill="#fff"/>
      <path id="Shape-3" data-name="Shape" d="M49.046,22.5a1.451,1.451,0,0,1-1.451-1.451A18.163,18.163,0,0,0,29.451,2.9a1.451,1.451,0,0,1,0-2.9A21.069,21.069,0,0,1,50.5,21.046,1.451,1.451,0,0,1,49.046,22.5Z" transform="translate(-8.403)" fill="#fff"/>
    </g>
  </g>
</svg>
