<svg id="UK_Map" data-name="UK Map" xmlns="http://www.w3.org/2000/svg" xmlns:xlink="http://www.w3.org/1999/xlink" width="163.444" height="305.801" viewBox="0 0 163.444 305.801">
  <defs>
    <clipPath id="clip-path">
      <path id="Path_7841" data-name="Path 7841" d="M581.181,39.744l-.467.636.218.533.332.4.37.278.348.151-.27.78-.556.009-1.132-.522-1.167.418-.57.049-.5-.467.081-.058.2-.209-.472-.227-.657-.023-1.271.248-.785.378-1.4,1.072-.878.417-1.747.291-1.746-.289-.457.094-.113-.1-.378-.76-.027-.1-.03.043-.185.047-.186.128-.262.658-.172.279-.231.148-.186-.009-.426-.138h-.778l-.23.119-.156.514-.178.118-.281-.055-.386-.2-.231.04-.135.147-.095.22-.119.239-.222.166.291.291-.463-.13-.608-.584-.405-.132-.208.026-.547.267-.786.556-.06.086-.83.9-.085.046-.085.067.008.153.025.186-.025.158-.556.821-.349.348-.355.157.367-.849.262-.8.3-.709.481-.565-.047-.392.016-.024.031-.138v-.294l-1-.751-.857-.388-.883-.173-.5.227-.209.552-.12.705-.225.675-.376.379-.412.2-.331.272-.139.606-.194.109-1.2,1.365-.383.061.195-.531.391-.734.366-.981.725-.716.236-.318.084-.241.082-.358-.02-.327-.209-.143-.264-.079-.571-.451-.342-.175-.626-.845-.36-.313.1.656-.111.272-.177.246-.09.57,0,.417-.038.4-.163.354-.374.307.131-.29.09-.3.052-.34.017-.435-.059.043-.123-.525-.109-.607v-.208l-.365-.475-.481-.32-2.625-.591-.344.414-.134.67-.07.8-.16.805h.139l-.24.6-.3.335-1.085.648-.16.182-.042.337v.707l2.242,1.98L547.8,48.5l-.5-.238-1.129.672.193.2.088.065.139.029v.262l-.064.014-.2-.014v.294l.231.037.216-.024.209-.106.184-.2.139.294-.065.315.195.255.565.465-.853.034-1.191-.825-.127-.038-.271-.168-.154-.037-.079.088V50.1l.026.255-.021.2-.195.408-.138.383-.009.389.2.412h-.406l.045.278.067.294.156.488.077.076.383.6.028.147.208.209.606.909.3.209.223.083.417.364.209.08.217-.074.234-.348.166-.108h.4l1.3.267-.278.2-.584.106-.27.227.556.428.233.236.2.411-1.4-1.076-.311-.091-1.019.091-.279-.127-.62-.548-.363-.122-.183.07-.284.186-.273.256-.154.287-.427-.353-.446-.062-.432.152-.812.551-.344.1-.347-.1-.86-.6-.471-.209-.33.111-.017.647.941,1.461.2.145h.267l-.044.18-.065.456-.042.182.2.07.182.113.167.152.154.193-.154.241.285.224.323.07.67-.033v.287l-.279.162-.582.139-.268.205.417.287v.264h-.278l.139.273.1.316.015.348-.1.377h.127l-.487.626-.449-.06-.437-.15-.448.371-.486-1.011-.778-.223-.386.524.673,1.235v.262l-.113.131-.056.12-.038.131-.07.166.839-.055.4.143.3.435-.094.1-.011.032-.047.106.521.106.841,1.077.6.151.291.279.655.133.248.224.184.478.034.449-.163.278-.4,0v.286l.495.135,2.044,1.8.109.255.049.271.12.369.144.348.117.2-.417-.272-.588-1.06-.864-.4-.744-.736-.256-.168-.2-.076-.463-.337-.26-.083-.214.038-.389.2-.232.017-.444-.246-.573-.846L540.845,68l-.113.463-.149-.029-.152-.175-.131.03-.089.259.01.1.049.088.029.214.165.161,1.313.6.894.933.6.279.232.236.3.535-1.475-.582-.687-.432L541.062,70l-.279-.242-.927-.408-.262-.006-.2.406-.242,1.1-.248.33.127.259-.657-.082-.835-.448-.579-.773.119-1.049h-.751l-.223-.152-.293-.376-.166.3-.474.639-.195.366.056.149.06.07.161.042-.217.387.266.437.787.748.279.591-.036.491-.082.54.131.753-.379-.241-.2-.059-.262.011.159.463.094.191.154.179-.332.013-.314-.156-.268-.29-.2-.4-.154-.556-.139-.773-.063-.758.076-.517-.5-.331-.533-.17-.538.01-.516.2-.266.229-.216.318-.15.377-.077.408.025.481.178.773-.054.311.035.449-.1.988.064.412,1.7.4.238.149.2.244.135.253.144.192.226.064-.158.418-.215.293-.256.035-.6-.679-.39.022-.758.432v.284l.117.347-.418.467-.117.461.107.472.253.157.315.042.311.131.379.607.259.75.353.593.683.128-.171.378-.106.118.7.826.568-.5.9-.131.922.218.623.527-.087.247-.475.018-.845-.147-1.468.256.059.184.045.187.062.2.111.209-.224-.059-.613-.435-.179-.143-.353-.549-.175.152-.348-.261-1.1-1.142-.351-.232-.362-.069-.362.147.043.17.07.433.043.173-.316,0-.091.3.009.482-.024.54-.08.241-.277.641-.06.273.043.486.192.659.043.4.132.092.633.185.209.124-.218.247-.07.253.011.509.036.12.189.292.056.127-.033.118-.094.111-.1.063-.057-.024.347,1.486.475.241,1.065-.159.513-.264,1.374-1.824.323-.313.092-.014.037.252.176.467.046.324-.177.25-.5.325.593.094.492.238.475.07.529-.4.929-1.319.547-.573.348.081L539,88.934l-.907.853-2.283,1.094-.479.086-.1-.133-.117-.248-.144-.155-.188.161-.174.2-.44.273-.17.179-.477,1.164-.081.127.177.514.417.039.881-.294.4.088.777.365.428.061.408-.138.715-.517.351-.115.24-.236.26-.463.342-.312.494.216v.282l-.491.193-.495.536-.262.556.191.256.2.108.2.255.3.55.188.171.849.205v.257l-.8.256-.69-.527-.639-.78-.657-.5-.705.154-.853.551-.5.714.377.641-.269.517-.713,1.033-.145.642.256.383,1.709.52.231.223.522.666.145.14.27-.043.479-.191,1.714-.3.4.258v.278h-.138l-.147-.07-.337-.093-.338.019-.154.272-.1.12-2.008-.025-.412-.224-.866-.662-.51-.208-.36.217-.209.176-.6-.064-.249.023-.143.14-.242.417-.851,1.114-.306.617.224.282.216.073.349.348.208.092.225-.035.418-.2.182-.024.445.326-.033.521-.077.476.31.209.417.159.431.29.443.127.458-.324.273.145.3-.1.326-.191.354-.1v.252l-.983.5-1.114.271-.67-.108-.318-.152-.29-.228-.237-.314-.406-.728-.193-.232-.53-.106-.626.229-.572.408-.362.463-.222.739-.181.865-.228.764-.36.437.412.427.159.1v.278l-.722.047-.684.183.943.262,1.924-.436.921.174-.813.9-.176.374.8.216.41.009.325-.626.334-.176.375-.044.27.131-.658.673-.84.373-2.113.308-.278.284.006.412.391.47,1.531.76-.408-.115-.522-.145-.459.159-.3.374-.223-.185-.238-.1-.251-.021-.253.033v.272l.367.061.209.279.1.392.022.4-.175-.139-1.078-.48-.3-.231-.193-.259-.209-.209-.348-.088-.3.122-.719.539-.243.125-3.136.34-.264.222-.442.709-.151.09-.14-.07-.1.016-.04.357.022.242.056.219.088.2.113.208.265.261.473.272.506.107.369-.248.406-.4.514-.049,1.5.417,1.416-.11.262.07.456.328.262.107h.217l.77-.226,2.227-1.239.841.226,1.025.657.451.081,1.894-.256-.432.289-.6.163-1.086.079-.511-.11-1.285-.673-.5.058-2.159,1.459.006.369.2.251.485.4-.153.279-.565-.556-.658-.339-.705-.147-1.019.07-.3.108-.209.286-.033.582.129.289,3.043,2.524,1.235.266.761-1.059h.151l-.038.364-.085.3-.309.6.247.29.357.252.387.17.334.069.221.106.236.487.182.139.139-.062,1.382-1.126,1.351-1.621.817-1.239.221-.257.241-.188.259-.069.189-.158.295-.676.209-.155.417-.08.323-.226.586-.732.227-.455.166-.213.43-.165.189-.334.18-.07.36-.03.3-.139.269-.316.27-.548.065-.3.04-.332.07-.275.171-.113.216-.066.25-.147.213-.208.09-.239.173-.3,1.209-1.082-.338.727-.374.615-1.377,1.513-.128.191-.209.515.005.22,1.589.765,3.362-.743-.348.247-1.644.38-.8.535-.424.126-.879-.278h-.458l-.6.539-.269.026-.516-.063-.455.4-.178.107v.278l.392.279-.253.473-.835.769-.18.248-.528,1.015-.056.145-.07.309-.078.177-.124.157-.094.08-.076.119-.063.273.278.038.331.378.242.115.246-.07.444-.373.225-.088.341-.273.085-.026.409.026.227-.054.684-.431-.214.331-.255.191-.52.239-.974.761-.378.167-.46.012-.5-.2-.487-.487-.115.524-.723,1.762.279.233.386-.8.241-.328.277-.135.335,1.41.329.239.572-.514,2.169.506.869-.106.225-.239.474-.792.834-.755.315-.57.225-.657.268-.545.448-.25-.429.607-.67,1.513-1.294,1.774-.549.476-.681.168-1.648-.47-2.055.182-.683.337-.515.728.086.307-.161.174-.266.126-.217.146-.158.293-.412,1.217.453.1.883-.3.487-.035v.229l-1.022.414-.556.065-.376-.23-.39.436-.2.475L536.381,130l-.225.765-.049.412.122.326.2.038.2-.186.193-.236L537,131l.85-.271.275.122.128.265-.038.268-.233.121-.4.093-.441.259-.249.388.184.487-.385.587-.348.7-.264.75-.132.753.473-.383.409-.636.463-.57.619-.18-.125.5-.138.328-.657,1.035-.081.244.037.313.131.572.058.061.125.088.139.14.1.233-.031.217-.162-.022-.17-.12-.053-.076v-.052l-.122-.085-.163-.08-.132-.035-.131.074-.052.153-.03.168-.064.127-1.534,2.244-.746,1.493-.113.968-.079.214-.035.258.061.213.209.081.076-.115.339-.652-.015-.8.881-1.029.123-.673.326-.2.271-.252.256-.139.263.116-.116.186-.121.126.086.166-.172.453-2.235,3.5.045.4.128.422.144.241.183,0,.369-.388.536-.282.7-.824.457-.238-.312.4-.369.353-.307.379-.129.486-.127.294-.859,1.308.1.286.022.97.153.5.278.361.278.17.556.208-.139.473.268-.012.246-.1.727-.6,1.977-2.251-.378,1.089-.637.956-.705.664-.586.259-.27.227-.348.531-.3.622-.131.5-.148.411-1.105.944.232.5-.078.719-.433,1.271L533.664,156l-.076.409.059.256.14.241.086.265-.287,1.057.034.807.1.815-.006.75-.2.375-.778.922-.572.481-.109.7.043.812.239,1.536.219.435.359.139.594.008.236-.07.458-.34.217-.1.24.012.4.2.2.051.48-.1.456-.234.4-.32.334-.348.676-.951.2-.545-.239-.233-.018-.145-.33-.814-.19-.27-.185-.191-.209-.088-.255.037v-.22l.473-.3.326-.486.455-1.207.09-.081.09.041.07-.017.028-.289-.022-.684.022-.189.127-.348.432-.859-.133-.676.241-.208.323-.139.127-.473-.158-.369-.248-.07-.184-.213.033-.826-.042-.106-.08-.163-.032-.156.437-.338.051-.294.051-.639.053-.3.146-.449.193-.4.226-.342.934-1.055.311-.222.7-.23.283-.239.14-.5-.184-.926-.51-.862-1.132-1.228.1-.075.1-.12.1-.076-.2-.184-.088-.04v-.25h.139v-.224l-.248-.242-.07-.284-.014-.339-.086-.418-.2-.721-.114-.03-.307-.161-.07-.08.149-1.961-.012-.238.006-.23.07-.192.15-.086.046.229,0,.32.015.166.383.127.5.04.444-.138.188-.41.062.033.125-.442.1-.515-.009-.184.154-.106.371-.033.185-.113,1.686-2.6,2.434-1.664.2-.263.487-1.283.221-.456.306-.278.348-.155.83-.07.348-.179.756-.844.357-.247-.4.965-.709.529-.78.347-.618.415-.326.486-.725,1.675-.2.208-.855.671-1.185.5-2.226,3.905-.5.577.255,1.066.037.31-.047.312-.2.4-.043.286-.018.664.018.335.07.26.156.186.162.09.124.131.125.908.213.283.688.252.892.516h.362l-.143-.643-.2-.557-.491-1.026.6-.878.1-.273.044-.361.126-.51.18-.482.208-.271v.759l.189.467,1.345,1.109.389.138.17-.347-.154-.766-.78-1.981-.321-.6.328-.257.154.3.107.462.819,1.1.077.726.209,1.039.29.93.326.4.648.14.234-.046.291-.319.2-.373.088-.337.059-.353.1-.428.175-.321.235-.289.2-.355.074-.522-.1-.417-.213-.287-.268-.184-.259-.128v-.247l.347.1.329.191.3.108.279-.15-.108-.417-.043-.486v-.712l-.088-.738.053-.278.257-.108.063-.57-.186-1.252-.284-1.286-.231-.654.275-.335.278.1.215.38.086.495-.035,1.118.153.287.439-.024.29-.427,1.172-2.455.282-.387.216-.165.1.139-.094.527-1.444,2.334-.8,2.1-.03.305.03,1.39.062.662.221.513.48.208.5.006.374-.069.134-.3-.231-.664-.967-1.468-.125-.453-.013-.367.106-.273.3.074.013.173.264,1.1.236.467.321.487.376.386.828.317,1.043,1.328.888.565,3.028.655-.5.336-3.4-.535-.437-.278-.233.1-.341-.058-1.3-.612-.275-.035-.383.083-.638.265-.465.405-.294.635-.125.973.209,2.6.1.371.122.313.135.435.083,1.223-.31.782-.9.958.4.586.661.6,1.182.782v.272l-.148.331.187.139.661.024,1.113.49.6.5.439.75.1.8-.428.659.742.25.492.623.184.87-.175.974-.492.714-1.358.647-.66.6-.193.409-.168.835-.122.348-.165.213-.371.314-.677.846-.113.218-.036.337.052.777-.017.347-.079.32L551.088,168l-.015.177.006.381-.041.118-.209.055-.1.081-1.321,1.808-.837.545-.4.41-.17.659-.056.725-.138.482-.362.868-.083.309-.042.237-.012.789.064.418.286.7.07.342.115.328.734,1.485v.239l-.083.124-.069.14-.358.377-.363-.061-.338-.316-.27-.387-.1-.325.033-.856-.015-.4-.1-.369-.15-.34-.305-.5-.1-.2-.193-.4-.209-.186-.094.412-.1.111-.226.033-.431-.027-.289.282-.138.641-.06,1.281.1,1.408.376,1.256.588,1.074,1.94,2.35.41.19.2.208.129.454.088.486.091.323.134.129.168.07.382.045-.088.265v.244l.083.236.155.22-.241.322-.017.584.127.546.194.25.422.11.874.471.441.117-.262-.575-.009-.173.006-.328.107-.637-.006-.306-.586-.509-.323-.835-.232-.834-.14-.383-.209-.155-.158-.363-.1-.41-.038-.3v-.258l.024-.182.081-.209.179-.313.308-.451.408-.435.465-.363.49-.223.776-.013.437.193.377.995.442.278.92.26,2.406,1.508.675.664,1.182,1.829.182.139.726-.019.193.081.517.4.432.189.465.07.216-.073.134-.165.1-.166.111-.074.14-.291-.106-.666-.066-.737.257-.517-.291-.51.1-.433.179-.4-.065-.454-.246-.332-.26-.185-.292-.081-.329-.018-.133-.236-.161-.516-.186-.829.056-.381.139-.444.16-.364.125-.146.328.082.138.247.1.389.193.506.179.25.236.188,1.521.734.307.038.328-.166.5-.631.3-.193-.178,1.415.718,1.2,1.044.686.8-.144-.2-.556.07-.6.233-.5.3-.262.008.163.283.125.043.364-.084.458.041.36-.008.031-.059.128-.057.1.049.089.07.054.07.017.082.037v.266l.635.052.97-.139,1.6-1.217,1.063-.482.2-.164-.7-.7.278-.227.135-.035L572,181.7l-.093-.369.316-.308.242-.4.076.113.036.1.028.265-.1-.158-.1-.053-.231.433.107.225.128.145.152.024.187-.129-.069-.07-.024-.011-.044-.182,1.447.234.442-.749.527-.082,1.906.185.336-.2.233-.572.037-.578-.039-.765-.1-.7-.163-.381.268-.969.584.525.319.125.348-.163-.035-.152-.011-.03-.02-.008-.063-.07.293-.119.3.1.319.18.343.1,6.495.482,1.726-.467.1-.024.5.226v.265l-.385-.155-.316.131-.312.2-.39.063v.244h1.4l-.361.259-1.7.513-.414-.032-.758-.25-.159-.131-.118-.152-.152-.125-.255-.082-1.285.39-.306.239-.527.584,1.021.52.257.209-.834.456-.222.022-.33-.127-.217-.265-.238-.186-.4.1-.478.581-.4.963-.666,2.076.187.6-.177.67-.326.588-.258.335-.216.155-.449.177-.169.149-.138.307-.288.881-.687,1.6-.543,2.744-.428,1.217-.1.082-.218.252-.149.264.209.242.215.5.1.118.335.186,1.921,2.7.478.431.7,1.461.486.242.059.07.042.357.148.5-.038.311-.088.287-.051.272.11.556.271.469.607.765.736,1.315.443.447.424-.187.323-.07.469.041.3-.166-.18-.668.2-.882.171-.363.32-.184-.036.7.047,1.183-.17,1.017-.676.209v.242l.312.264.008.5-.109.591-.062.534.2.248.238.152.279.074.324.025.187.174.721,1.01.017-.4-.06-.468.043-.391.556-.31.209-.338.348-.727.606-.782.088-.284.067-.385.115-.458.063-.488-.091-.474.273-.139.233.149.185.341.146.4-.187.348.123.556.279.51.274.225.918-.07.386-.241.16-.526.159-.367.375-.3.73-.4.608-.487.289-.418.08-.522h.139l.017.671-.314.616-.458.442-.435.177.07.325.78,1.558.344.513-.393.917-.239.347-.656.27-.277.327-.4.746-.175.178-.215.17-.139.2.043.271.321.744.1.094.626-.067.355-.144.357-.265-.1.557-.7.734.227.385-.147.076-.187.128-.155.179-.07.208-.07.154-.156-.063-.267-.209-.334.038-1.878.718-.472.3-.327.6.239.955-.233,2.6.146,1.157.567.815.747.337,1.754.024-.258.358-.819.584-.177.358-.169.122-1.087,1.415-1.343,2.235-.238.536-.051.477.109.476,2.359,5.183.488.756.654.7.786.562.874.331.9.1.351-.182.143-.5.225-.138,1.027-.246.3.015-.182.192-.183.122-.175.026-.173-.086-.175.2-.158.235-.058.313.114.438-.556.326-.289.086-.338.029-.148-.042-.308-.153-.182-.02-.154.1-.07.154-.022.139-.022.074-.632.033-.591-.279-.5-.446-.366-.487-1.207-3.17-.477-.579-.463-.035-.737.59-.417.163-.869.133-.371.208-.223.34.023.529.279.511.734.973.5,1.054.545.936v1.257l-.07.127-.146-.154-.255-.429-.3-.348-2.622-1.72-.232-.271-.187-.338-.432-.338-.773-.389-.854.033-3.882,1.925-.814.192-2.327.06-.32-.2-.333-.506-.421-.385-.445-.15-.4.216-.262-.321-.357-.214-.4-.116-.373-.043.154.4.6.62.2.626h-.69l-2.229.922-.7.588-.477.131-.449.216-.26.179-.149-.056-.167-.1-.17-.047-.639.054-.6.185-.538.353-.46.563-.424.883-.272.383-.363.153-.227.163-.817.993-.024.149-.151.388-.173.271-.082-.218-.062-.234-.136-.07-.134.139-.062.392-.038,1.416-.087.6-.168.444-1.335.873-.406.7-1.642,1.283-.4.218-.378.111-.389.035-.309.172-2.832,3.307-.294.541-.125.166.082.2-.022.154-.21.312.313.2.291-.139.286-.335.3-.191,1.145.119.453-.119.149-.115.113-.153.144-.133.241-.06.238.074.391.314.439.155.283.347.246.034.149-.07.149-.123.258-.273-.246-.36.006-.437.195-.383.325-.2-.05-.142-.076-.091.724-.838.385-.341.418-.225,1.418.02.406-.246.34-.209,1.475-.46,1.157.2.557-.052.525-.4.161.377.209.051.232-.163.234-.265.064.134.065.056.15.065-1.216.873-.129.138-.044.232v.474l.093.224.161.521.049.524-.233.239-.355.117-.058.273.1.313.39.826,1.558,1.909.344-.081.352-.284.54-.061-.264.34-.835.651-.217.081-.078.055-.047.139-.1.457-.07.09-.364.26-.429.641-.332.829-.069.835.231.515.932,1.286.314.259.557-.1,1.053-.377h.552v.25l-1.052.783-.355.129-.209-.053-.444-.23-.163.036-.128.282-.028.4.045.406.111.311-.232.472-.227.688-.17.766-.184,1.41-.275.75-.6,1.17-1.185,1.7-2.422,2.091-.377.112-.417.031-.334.094-.294.189-.607.734-.4.366-.4.278-.6.191-.139.188-.1.235-.132.165-.237.094-2.523-.094-.779.385.043.978-.673-.537-.279.007-.375.418-.5.826-.294.362-.4.278-.679.115-.159.129-.006.3.092.374.033.33-.186.133-.445-.07-.785-.311-.385-.065.14.447-.588.248-.393-.006-1.089-.594-.232-.057-.557-.038-.337.065-.225.175-.031.223.246.215v.2H546.6l-.061.85-.644.564-.834.315-.626.091-.266.147-.615.635-.38.143-.735.061-.192.19.161.424v.2l-.2.124-.051.1.038.111.07.142v.246l-.142.084-.139.118h.4l1.136-.229.291-.219.363.246.8.109.366.314.139-.22.283.264.17.41.08.49.023.509.108.826-.065.32-.321.324-.353.155-.683.134-.292.284-.239.338-.225.167-.291.065-.435,0,.394.122,1.011.778v.2l-.044.355.289.015.236-.287-.2-.533.362-.139,2.843.383.445-.017,1.582-.369.306-.328.07-.367-.289-.269.116-.482-.094-.3-.245-.138-.334,0,.252-.16,1.149-.1.592-.246.239-.166v.242l-.78.2-.339.671.118.794.579.583v.209l-.266-.149-.209.051-.5.344-.984.2-.688.4-.279.067-.293-.047-.533-.184-.3.012.044.107.051.248.045.111-1.568-.226-.129.226.392.451,1.007.257.3.636-.185.347.491.362,1.33.432.213.171.106.03.182-.079.17-.316.382-.17.188-.24.16-.291.184-.246.313-.214.31-.074,1.82.042.355-.362.139-.107.278.243.184.058.375-.93.047-.249v-.125l.045-.065.187-.027.043-.814.669-.487.854-.231.6-.063,1.534.209.78-.029.7-.383-.307-.3-.162-.316.07-.227.4-.07.173.243.175.157.209.049.127-.07.165-.27.113-.111.159-.348.131-.1.139.227v.3l-.1.305-.119.227-.06.07.188.4.314.234.378.094.372-.026-.2.291-.371.047-.84-.109.26.6.494.584.552.437.442.173,1.607-.249.3-.2,1.1.626.807.084.236-.024.166-.122.238-.3.1.063.017.235-.008.214-.435.74-.974.241-1.043.07-.632.209-.139-.143-.138-.1v-.2h.129l-.129-.246-.131.184-.221.41-.077.1-.7.223.006.509.18.417.052.344-.389.3.047.236.036.09.07.117.357.023,1.208.519.261.006.077-.339.185.013.225.154.209.057.2-.125.287-.348.213-.2.217-.1.193.011.51.125.209.159.139.043.09-.07.193-.306.064-.07.135.024.16.074.139.1.054.13.057.17.115-.058.1-.149v-.087h.846l-.15-.282-.208-.312-.156-.32.019-.309.182-.2.273-.177.289-.119,2.2-.269.269.074.181.195.321.622.192.247.351.235.168.175.245.435.228.541.2.615.149.643-.053.021-.061.019-.038.056.027.147.215.326.4.4.458.232.376-.177.285.024,1.195,1,.96,1.322.373.214,5.1.469,1.438-.608.307.042.389.128.36-.417.145-.7-.255-.7.123-.09.288-.039.145-.093.093-.154.117-.382.07-.138.528-.545.348-.255.307-.107,1.189-.758.109-.209.535-.67.19-.148.106.105.111.229.161.232.262.108,1.731-.125.863-.309,1.137-.789.967-.226.4-.314.573-.678,1.336-1.6.186-.32.192-.209,1.215-.8.287-.4.249-.445.278-.357.388-.149.4-.034.472-.155.365-.338.091-.613.3.295.053.369-.161.381-.328.3-.876.31-.354.195-.7.954-1.16,1.228-.125.191-.139.279-.113.3-.046.27-.07.293-.184.146-.209.092-.169.134-1.8,3.1-.417.431-.429.179-.488.042-.4.123-.362.209-.359.3-1.387,1.847-.753.737-.652-.139-.444.469.31.326-.131.3-.284.295-.157.3-.017.5-.076.3-.208.092-.4-.123.231.389.057.618-.008,1.217.065.307.07.173.039.216-.037.412-.07.242-.348.668-.278-.221.278-.462-.153-.228-.576.4-.8.119-1.351-.07-.738.1-1.46.463-2.334.106-.4-.19-.6-.58-2.555-.593-1.64.054-2.644-.7-.369.032-.65.348-.446.086H570.5l-.387.07-.765.291-3.732.348-1.552.622v.2l.227.153.149.275.033.348-.131.348-.151.055-.685-.055.138.278.348.53.07.2.044.236.244.879.127.313-.214.125-.126.177-.093.191-.113.191-1.38,1.547-.306.219-.417.131-1.182-.131-.208-.074-.418-.321-.225-.069h-1.815l-.1.2.02.447.076.469.08.248-.284.8-.14.272-.229,1.34.1,2.842-.556,1.121-.849.64-.383.446-.159.565-.239.4-1.449,1.246-.278-.08-.209.152-.07.348.125.472-.322.53-.233.585-.324.467-.588.193-1.519.1-.508-.1v.2l.107.329-.1.273-.031.295.319.414.675.25.353.218.223.421-.33-.158-.842-.049-.371-.227-.076.105-.052.047-.138.087-.016-.362-.056-.435-.088-.374-.117-.181-.154.044-.268.306-.148.113h-.417l-.406.323-.2.439-.07.556-.023.647-.186,1.241-.189.435-.043.184-1.42.762-.154-.012-.307.022-.231.156.138.639.028.4-.017.374-.07.163-.279.094-.752.522L541.894,336l-.758.426h-.729l-.108.116-.058.295-.144.316-.3.472-.422.261-.409-.205-.633-.61-.448.013-.784.508-.7.243-1.3.755-.6.225-.159.115-.386.659-.039.109-.077.148.033.335.113.6.033-.006.07.085.055.154v.2l-.088.129-.145.062-.2.024.209.958.773.309.974-.111.834-.27.3-.153.366-.3.224-.428-.122-.556-.006-.437.391-.328.531-.186.426-.025.34.145.684.425.828.146,1.228.586.4.289.326.4.583.958.144.306.008.226-.017.259.074.392.086.22.1.157.616.683.208.172.184.069.07-.17.238-.743.605-.718.139-.117.248-.038.417.083.186-.045.582-.879.266-.584-.086-.265-.087-.094-.07-.426-.047-.133-.1-.033-.234.042-.1-.008-.291-.179-.176-.047-.231.01.655-.3.182-.136.081-.234-.013-.26.027-.232.2-.144.25-.171.135-.061.17.011-.306-.357-.124-.093v-.195l.26-.348-.038-.364.014-.277.4-.113.259.234.121,1.125.247.392.849-1.471.278-.278.868-.293.355-.2.379-.463.386-.164,1.012.159.209-.222.038-.173.241-.6v-.138l-.111-.209-.033-.2.076-.2.168-.236.188-.2.143-.118v-.252l-.161-.411.229-.259.417-.139.414-.038.117-.055.11-.105.119-.081.145.019.278.875h.119l.1-.07.063-.1,0-.046,3.354-.205.8-.308,1.482-.933.938-.1,1.739.456.355.213.189.458.218.388.436.032v-.2l-.111-.222.024-.216.134-.167.232-.085v-.2h-.572l.155-.241-.4-.04-.168.04v-.214l.707-.2-.46-.353-1.159.192-.348-.5.99.086.267-.086.179-.247.07-.337-.083-.326-.3-.2v-.194h.248l.209-.112.156-.225.086-.347.221.189.209.012.406-.2-.217.457-.278.428-.154.451.154.531.165.328.088.259.12.2.261.182.225.049.753-.049-.278.6.209.486.456.333.447.131-.077.295-.047.116.323.282.208.12.231.055.166-.077.275-.306.115-.074.2-.07.522-.3.19-.047.222.1,1.343,1.232,1.182,1.468.765.695.3-.339.318.04.369.187.459.111.347-.038.822-.243.307-.156-.159-.8.119-.75.209-.658.109-.543.213-.306.458-.122.439-.26.148-.714.325.279.32.1.246-.171.135-.8.107-.166.155-.083.184-.036.017-.115.209-.556v-.216l-.911.051-.353-.175-.145-.531.14-.46.352-.265.454-.117.46-.033-.364-1.334-.016-.625.227-.873.269-.654.3-.549.326-.441.361-.348-.178-.431-.266-1.1-.257-.291-.024-.151.024-.149.07-.07.119.029.063.073.045.067.056.034.086.129.264.764.253.481.279.264.341.113.459.023,1.482-.659.309-.437.188-.425.231-.326.834-.2.688-.313.389-.07.231.049.389.175.209.018.2-.088.339-.289.1-.062.456-.392.238-.073.773.22.487-.06.723-.478,1.538-.36.458.02,3.51,1.316,4.273,3.288.473.8.015,1.207h.125l.29-.449.216-.506-.052-.406-.513-.171-.188-.307.114-.687.252-.682.239-.315.765-.248.433-.07.7.442,3.783.424,1.536.727.347.076,1.658-.038.378-.172-.043-.48.708-.881-.113-.042-.3-.189.146-.548-.139-.247-.3-.067h-.335l-.377-.086-.24-.242-.43-.794-.227.191-.228.146-.242.087-.268.038.709-1.157.184-.16.1.091.174.426.07.118.164.042.536-.042.785.221.07.174.034.332.09.22.219-.166.312-.368.359-.287.385-.209.41-.129.458-.024,1.289.24.374-.088.786-.417.451-.13.454-.006,1.4.264.439.294.4.118.038-.008.044-.125.664-1.223.669.125.089-.013.232-.183.525-.192.931-.173v-.195l-.134-.129-.148-.119.3-.1,1.309-.117.458-.166.064-.381-.186-.437-1.592-1.788-.5-.606-.257-.045-.376-.238-.2-.105v-.2l2.6,1.461.769.935.269.147.675.236.477.418.662.348.133.3.145.2.33.2.375.147.266.018.266-.252.077-.348-.052-.626-.118-.2-.717-.606.3-.093,1.276-.1.371.2-.126.438-.374.551-.2.57.414.469.545-.07.278-.612.183-.775.264-.571.386-.112.634.009.643.121.414.22-.209.438.147.038.252-.144.1-.111.238.131.4.4.2.156v.2l-.586.239-.274.209-.113.332.149.189,1.862,1.194.463.156.393-.223.1-.332-.139-.605.115-.283.189-.078.172.109.168.15.179.063,3.344-1.121h3.5l2.609-.942.751.3.547-.3.67.07,4.243,1.554.869.06.375.125.355.347.19.111.718-.014.226.044.934.351.4.063.766-.013.757-1.077.7-.463.04-.122.2-.347.221-.295h.1l.757-.342,4.426-.946.823-.369,2-1.957.809-.27,2.922.965.7-.282-.214-1.252-.056-.835.2-.38,1.047-1.522.8-.739.418-.283.4-.106,1.337-.038.4-.166.154-.16.176-.233.2-.2.239-.085.444.029.228-.015.565-.433,1.359-.467.557-.668.417-1.034.166-1.244-.175-1.285-.337-.865-.148-.547-.06-.7.109-.117.727.006.131-.109.116-.158.1-.2.069-.205.191-1.07-.5-.3-6.589.613-2.525.782-4.345-.49-.224-.234-.289-.537-.22-.6-.04-.412-.436-.02-.1.312.094.451.161.388-.835-.227h-1.759l-.19-.082-.15-.2-.139-.221-.157-.189.369-.236.751-.182.644-.626.317-.01.729.167.426-.054.208-.18-.024-.319-.258-.463-.3-.208-3.27-.483-1.326.363-.1.107-.069.234-.091.225-.168.106-1.308.22.3-.168.3-.115.294-.168.266-.323.131-.369.056-.329.11-.241,1.41-.367.563-.037.331.314.269-.265.265-.07.279-.014.3-.1.389-.374.028-.058.131-.017.272.008.015.008.562-.033,1.616.262.92-.3,1.162-.728,1.044-.947.561-.94-.078-.145-.2-.122-.55.044.313-.236.159-.159.07-.177v-.766l.076-.277.209-.179-.164-.4-.074-.258-.043-.258.045-.055.086-.247.056-.319-.036-.279-.315-.327-.36.069-.588.488-.626.259-1.306.29-.582.572-.229-.522-.347-.173-.369-.051-.319-.156.453-.263.942-.376.5-.054.2.051.453.191.25,0,.208-.105.325-.282.24-.065.108-.177.09-.394.062-.39.01-.179.149-.081.636-.591.749-.371.31-.357.049-.617.188.434.667.912.323.673.189.163.383.063,1.431-.216.661-.273,1.049-.715,1.166-1.085.244-.523-.03-.7-.1.042-.152.333-.212.209-.74-.112-.321-.138-.261-.2,1.612-1.655.07-.626-.41.248-3.4-.216-.536-.253.519-.083.993-.337.453-.026.572.38.255.07.245-.031.432-.139.238-.033.418.107.07-.15.018-.535-.1-.148-.215-.109-.934-.218-.428-.313-.727-.689v-.22l.556.111,1.018.819.6.2,1.391,1.789.23-.086.232-.369,1.424-1.582.5-.765.139-.118.165-.221.058-.424.107-.271.3.232.347-.394,1.6-.683.105-.178.039-.454.291-.9.079-.6.365-1.146.113-.644-.054-1.5.046-.855.218-.369.22-.248.644-1.182.9-2.394.047-.314-.022-.326.519-1.728.257-.323.084-.3-.483-1.569.026-1.2-.038-.664-.127-.516.131-.708-.265-.993-.373-.979-.383-1.589-.486-.828-.6-.676-5.066-3.9-2.476-1.274-6.3-1.529v.23l.264-.026.254.029.241.094.216.153-.927.432-.967-.247-.927-.449-.814-.217H665.7l-.435-.1-.455-.191-.451-.112-.412.155.151.252-.988-.042-1.1.217-1.007.47-.7.739-.279.575-.316.826-.262.911-.111.819-.262.446-.535.606-.41.626.108.528v.227l-.3-.152-.575-.825-.332-.192-.813-.079-.431.06-.363.273-.5-.611-1.052-1.631-.487-.332-.277-.109-.575-.473-.264-.115-1.058.255-.62-.042-.035-.412.273-.474.321-.221.481-.191.426-.46,1.609-2.384.278-.214.38-.161,1.822-1.855.334-.213.408-.089.225-.092.123-.239.426-1.772-.01-1.453-.286-1.281-1.669-4.607-.087-.466-.228-.534-.321-.48-.348-.267.15-.232-.589-.426-.182-.059-.117-.135-.058-.308-.04-.36-.062-.252-.334-.389-.358-.162-.386-.088-.394-.182-1.954-1.6-.952-1.2-.291-.12-.718-.113-.354-.253-.626-.755-.914-.474-1.46-2.29-.389-.69-.568-.244-3.656.682-.563.449-.322.124-.307-.2-.218-.238-.831-.6-.477-.128-.616.037-.562.27-.31.542-.158-.166-.169-.139-.18-.1-.187-.07,1.392-.942.433-.138,1.182.138.056.081.506.5.145.065.691-.167h1.623l2.566-.876.916.148.716.527,1.943,2.544.357.29.417.226.47.139.5.05.429-.109.792-.5.4-.093.441.166.887.653.417.144.325.25-.093.584-.447,1.06.444-.363.115-.129.25-1.113-.324-1.133-3.644-5.454-2.163-3.385-.358-1.044-.584-2.263-.449-.974.5-1.378.626-.723,1.809-1-.739-.67-2.5-1-.54-.58-.042-.139-.145-.923-.157-.322-.469-.24-.244-.246-.2-.153-.835-.22-.157-.185-.383-.566-.171-.186.055-.139.086-.355-.208-.081-.162-.177-.111-.23-.074-.232-.008-.7-.25-.881-.347-.834-.306-.556-.287-.289-.677-.5-.215-.295-.062-.357.039-.279-.024-.312-.245-.486-.575-.581L634.3,192.1l-4.195-1.313-.99-.665L628.25,190l-.4-.143-.344-.3-.357-.473-.176.992-.123.184-.246.052.037-.078-.052-.173-.081-.168-.058-.086-.1-.024-.031.088-.016.118-.054.054-.2-.017-.145-.066-.1-.143-.054-.253.487-.219.2-.175.166-.3-.166-.191-.12-.23-.081-.261-.049-.283-.115-.208-.033-.108-.005-.162h.417v-.26l-1.079-.492-.312-.234-.713-.941-.437-1.107-1.2-4.407.056-.32-.149-.131-.049-.314-.023-.789.009-.209.037-.159-.019-.214-.154-.385-.57-.6-.07-.1-.228-.168-.139-.41-.094-.449-.107-.314-.183-.319-.335-.9-.07-.3-.029-.1-.077-.061-.261-.116-.081-.07-.069-.219-.184-.758-.07-.77-.1-.259L619.4,171l-.086-.367.093-.312.138-.3.055-.352-.125-.366-.2-.188-.1-.225.163-.468-.464-.515-.256-.4-.112-.417-.049-.24-.08-.221-.038-.237.09-.264.076-.155.059-.15.04-.163.026-.163-.061-.637-.5-.92-.125-.778,0-.314.018-.2.106-.584.034-.348-.07-2.413-.09-.432-.145-.146-.2-.123-.1-.172.17-.313v-.247l-.39-.373-.178-.111v-.246l.278-.231-.213-.246-.144-.262-.035-.259.114-.234v-.248l-1.395-1.008-.439-.056-.719.2-.249-.147v-.225h.417l-.182-.514-.248-.306-.262-.131-.226-.029-.078.078-.09.18-.129.172-.19.062-.1-.129-.093-.258-.113-.259-.437-.307-.209-.449-.3-.838-2.692-3.472-.275-.543-1.164-2.3-.391-.451-.439-.182-.164-.111-.048-.27-.028-.334-.107-.3-.183-.093L603.271,143l-.874-.478-1.3-1.1-.782-.252-.831-.593-.3-.321-.139.168-.209.185-.084.149-.308-.224-.52.1-.287-.106.106-.189.186-.6-.37-.234-.586-.814-.388-.174-3.419-.25-.418.186-.6.724-.375.335.092.144.062.163.111.437-.506.066-.349.449-.338.569-.475.412-1.543.683-1.278.129-.255-.045-.124-.135-.367-.52-.146-.113-3.705-.308-.347-.3-.216-.294-.209-.015-.353.173h-.965l-3.507-.995-.457-.006-1.154.252-.244-.09-.135-.216-.1-.242-.144-.2-.143-.015-.389.077-.175-.062-.106-.269-.7-1.252-.168-.095-.175-.284-1.222-.865v-.225l.417.013.279.188.431.547.75.728.721.514.787.267,1.808-.031,3.3.974.8.058.8-.138.808-.379.707-.487.41-.188,1.429-.076.3-.209.231-.536.284-1.229.219-.392.41-.147.333-.195,1.135-1.3,1.085-.773.155-.339.213-.27.5-.139.973.019,1.258.666.5.084.46-.131,1.3-.892.983-.225.483-.23.374-.728,1.086-1.068v-.231l-.743-.655-.162-.1-.7-.647-.445-.232-1.865-.147-.14-.258-.147-.079-.182-.032-.23-.107-.042-.139-.088-.5-.078-.113h-.5l.328-.375.271-.551.15-.657-.039-.7-.245-.46-.723-.058-.36-.36-.354-.227-.492.088-.437.279-.188.347-.209.246-4.07,2.075-.793.2-.86.517-.428.118h-.859l-.354-.133-.246-.348.884.293.858-.362,2.126-2.178.707-.548.792-.367,6.038-.873.254.079.161.149.144.1.195-.09.392-.974.183-.289.779-.386.417-.3.348-.778,1.91-1.376.318-.4.213-.64.366-.4.113-.26-.012-.216-.127-.508v-.289l.2-.548.278-.375.247-.451.225-1.63.289-.61.365-.43.348-.308,1.135-.734.332-.4.492-.88.55-.785.7-.56.3-.417.124-.672.081-.192.375-.49.1-.209v-.454l-.1-.275-.122-.229-.055-.315.266-1.344.626-1.347,1.844-2.968.336-.709-.062-.323-.388-.307-.053-.7.112-.762.486-1.956,1.317-3.5.522-.824,2.137-2.009.049-.524.357-.68.835-1.149.474-.411.139-.235L614.2,85.8l-.189-.156-.024-.323.139-.284.291-.033-.577-.667-.218-.417.085-.474v-.235l-.319-.607-.113-.67-.07-.689-.184-.654-1.733-1.952-.231-.508-.144-.16-.247-.013-.339.3-.247-.034-.177-.213-.18-.352-.12-.33-.017-.148-2.255-.077-.329.077-1.222.929-.528.115-.412-.139-.9-.562-.432-.082-.178.079-.183.154-.15.2-.063.217-.11.182-.247-.07-.393-.246-.188.07-.348.341-.229.131-.223-.059-.183-.171-.156-.062-.149.291-.963-.5-.369-.042-.266.175-.144.287-.163.058-.326-.52-.64.033-1.744-.61-.695.338-.209-.228-.166.029-.168.127-.23.079-.209-.083-.208-.375-.139-.088h-3.222l-.339.127-1.26.919-.828.262-.892-.031-2.683-.933L583.33,76.52l-2.541-.106-.248.069-.542.341-.262.1-.25-.051-.2-.113-.183.031-.2.39.115.442-.193.487-.326.414-.295.226-.389.08-.406-.051-.746-.267.418,1.015-.311.076-.278.122-.262.028-.266-.226.163-.182.1-.177.15-.417-1.218.283-3.117,2.338-.626.195-1.96-.195-1.872.3-.566-.041.764.7.234.417-.369.183-.291.079-.319.209-.3.291-.381.568-.214.111-.462.04-.015.105-.153.25-.33.421-.43.219-.369-.023-.738-.2.238-.3.229-.385.37-.869-.25-.19-.277-.066-.588.021V82.93h1.112l.472.147.138-.054-.189-.352.347-.454.394-.231.946-.093-.081-.079-.07-.1-.062-.138-.066-.195.713-1.155.6-.472.59-.738.424-.792-.1-.48-.311.052-.885.565-.26.284-.328.259-.444.013-1.028-.229-.268-.344-.237-.105-.168.019-.872.455-.785.823-.93.573-.247.347-.209.376-.284.387-.3.3-.613.264-.278.216-.1-.029.17-.588.164-.38.185-.25,1.322-1.352.29-.119.31-.25.139-.527.15-.44.348-.014.38.07,1.33-.375.52-.035.272-.12,1.575-1.436.719-.267.543.533-.25.595.1.376.323.153.4-.085.266-.278.539-.826.466-.378,2.772-3.662.164-.334.054-.626-.133-.374-.253-.039-.308.357-.579.852-.73.7-.757.348L569.807,73l.278-.5-.362-.488-.655-.151-1.152.928-.719-.2-1.306-.9.115.64-.332.008-.488-.347-.348-.431-.357-.348-.427.08-.824.4-.782-.172-.65-.551-1.078-1.63.41.145.39.358.657.921.451.32,1.645-.437.57.161,1.171.607.574.018.165-.139.354-.495.19-.149.311,0,.607.241h.32l-.088-.434.1-.4.424-.714-.433-.746-.138-.172-.311-.153-.637-.03-.3-.238-.176-.338-.057-.313.094-.153.584.347.527.07.278.155-.139.231.092.1.337.191.013-.4.074-.323.139-.226.195-.12,1.308-.918.646-.154.512-.287.182-.192.113-.278.2-.78.178-.408.373-.383,1.514-.776,4.484-3.712.855-.974.381-.642.16-.641.184-.36,1.086-1.1.719-.449,1.785-.643.856-.5.765-.889,1.082-1.583.888-1.749.185-1.375.213-.063.184-.22.091-.348-.07-.456-.157-.209-.2.045-.228.135-.255.028-.432-.266L586.5,46.6v-.632l.226-.765.15-.256.536-.516.184-.332.307-.7.231-.325.1-.581.389-.8.128-.712-.688-.31-1.346.278h-.68l-1.061-.782-.824.082-1.337.422h-.626l-.15-.15-.077-.348-.052-.358-.081-.209-.342-.06Z" transform="translate(-523.084 -39.542)" fill="none"/>
    </clipPath>
  </defs>
  <path id="Path_7836" data-name="Path 7836" d="M581.18,39.745l-.467.635.217.533.332.4.371.278.347.151-.27.78-.556.01-1.132-.522-1.167.417-.57.049-.5-.467.08-.058.2-.209-.472-.227-.657-.023-1.271.248-.784.378-1.4,1.072-.879.417-1.746.291-1.747-.288-.457.094-.113-.1-.378-.76-.027-.1-.03.043-.185.047-.186.129-.262.658-.172.278-.231.149-.186-.009-.426-.139h-.778l-.229.12-.156.513-.177.119-.282-.055-.386-.2-.231.041-.134.146-.1.22-.119.239-.222.167.292.291-.464-.13-.608-.584-.4-.133-.209.026-.547.267-.786.557-.06.086-.83.9-.084.047-.086.066.008.154.025.185-.025.158-.556.822-.349.348-.355.158.368-.849.261-.8.3-.709.48-.564-.047-.393.015-.023.031-.139v-.294l-1-.752-.857-.388-.882-.172-.5.227-.208.552-.121.706-.224.675-.376.378-.412.2-.33.271-.139.606-.195.109-1.2,1.366-.383.061.195-.531.391-.734.366-.981.725-.716.237-.318.084-.241.082-.358-.019-.328-.208-.143-.264-.079-.572-.451-.342-.175-.626-.845-.36-.313.1.656-.112.271-.177.246-.09.569,0,.417-.037.4-.164.355-.374.307.131-.29.09-.3.053-.339.017-.435-.06.042-.123-.524-.109-.607v-.209l-.364-.474-.481-.321-2.624-.591-.344.414-.134.669-.07.8-.159.805h.138l-.24.6-.3.336-1.085.647-.16.182-.041.337v.707l2.242,1.98L547.8,48.5l-.5-.238-1.129.672.193.2.088.065.138.029v.262l-.063.014-.2-.014v.293l.23.037.216-.023.209-.107.184-.2.139.293-.064.316.195.255.564.465-.853.033-1.191-.825-.127-.037-.271-.168-.154-.037-.079.088V50.1l.026.255-.02.2-.195.408-.139.383-.009.389.2.412h-.4l.044.278.067.294.157.487.077.076.383.6.028.147.209.208.605.91.3.209.223.083.418.364.208.08.218-.074.233-.348.166-.109h.4l1.3.267-.279.2-.584.107-.27.227.557.428.232.237.2.411-1.4-1.076-.311-.092-1.019.092-.278-.127-.62-.548-.363-.122-.184.07-.284.185-.273.256-.155.287-.427-.353-.446-.062-.432.152-.811.551-.344.095-.348-.095-.86-.6-.471-.209-.33.111-.017.646.942,1.461.2.146h.268l-.045.18-.065.455-.042.182.2.07.182.113.167.152.154.193-.154.241.286.224.323.07.67-.033v.287l-.279.162-.582.139-.268.2.418.287v.265h-.278l.139.272.1.316.015.348-.1.377h.127l-.488.626-.449-.059-.437-.15-.448.371-.486-1.011-.778-.222-.386.524.673,1.235v.263l-.113.131-.056.119-.039.131-.07.166.84-.054.4.143.3.435-.094.1-.011.033-.047.106.521.106.841,1.077.6.151.291.278.655.133.248.224.183.478.034.449-.162.278-.4,0v.285l.494.136,2.044,1.8.109.256.049.271.12.369.144.348.117.2-.417-.271-.588-1.061-.863-.4-.744-.736-.256-.168-.2-.077-.463-.336-.26-.084-.214.038-.389.205-.231.017-.445-.246-.573-.846L540.845,68l-.113.463-.15-.03-.152-.174-.131.029-.09.259.01.1.049.088.03.214.165.161,1.313.6.895.933.6.278.232.237.3.535-1.475-.582-.687-.432-.577-.685-.278-.242-.927-.408-.262-.006-.195.406-.243,1.1-.247.331.127.259-.657-.082-.834-.447-.579-.773.119-1.048h-.751l-.223-.152-.294-.375-.166.3-.474.639-.195.367.056.148.06.07.161.042-.217.387.266.438.787.747.279.591-.036.49-.082.54.131.753-.38-.242-.2-.058-.262.011.158.463.094.191.155.179-.332.013-.315-.157-.267-.291-.2-.4-.154-.556-.138-.773-.063-.758.076-.517-.5-.33-.533-.17-.538.01-.517.2-.265.23-.216.318-.15.377-.077.408.025.481.178.772-.054.312.036.449-.1.988.063.412,1.7.4.239.148.2.244.136.254.144.191.225.065-.158.417-.215.294-.256.035-.6-.68-.39.023-.757.432v.284l.117.348-.417.467-.118.462.107.472.253.157.316.042.311.131.378.607.259.75.353.593.682.127-.171.379-.106.117.7.826.567-.5.9-.131.922.217.623.528-.086.246-.475.018-.845-.147-1.468.256.059.184.045.187.062.2.11.209-.224-.059-.613-.435-.18-.143-.353-.549-.175.152-.349-.261-1.1-1.142-.352-.232-.361-.07-.362.147.043.17.069.434.043.172-.316,0-.09.3.009.481-.023.541-.081.241-.278.64-.06.274.043.486.192.659.043.4.133.092.633.185.208.123-.218.248-.07.252.012.509.035.121.189.291.056.127-.033.118-.094.111-.1.062-.057-.024.347,1.486.476.241,1.065-.159.513-.264,1.374-1.824.323-.313.093-.014.037.252.175.467.046.324-.177.25-.5.325.593.094.492.238.474.07.529-.4.93-1.318.547-.574.348.082L539,88.934l-.908.853-2.283,1.093-.478.086-.1-.133-.117-.248-.145-.154-.188.161-.174.2-.441.273-.17.179-.477,1.164-.081.127.177.513.417.039.882-.294.4.088.777.365.428.061.408-.139.715-.516.352-.115.239-.236.26-.463.342-.312.494.215v.282l-.491.194-.495.536-.262.556.191.256.2.108.2.254.3.55.188.172.849.2v.257l-.8.256-.689-.527-.639-.78-.657-.5-.706.155-.853.551-.5.714.377.64-.268.518-.713,1.033-.145.641.255.383,1.709.52.231.223.522.666.145.14.27-.044.479-.191,1.713-.3.4.258v.278h-.139l-.147-.07-.337-.093-.338.019-.153.271-.1.12-2.007-.025-.412-.224-.867-.661-.511-.209-.36.217-.209.176-.6-.063-.248.023-.143.139-.242.417-.851,1.113-.306.617.224.282.216.074.348.348.209.092.225-.035.417-.2.182-.024.446.326-.033.522-.076.476.31.209.417.159.431.291.444.127.458-.325.274.145.3-.1.326-.191.354-.1v.252l-.983.5-1.113.271-.67-.108-.318-.152-.291-.228-.237-.314-.406-.729-.193-.231-.53-.106-.626.228-.573.408-.362.463-.222.739-.18.865-.229.765-.36.437.412.427.158.1v.278l-.721.047-.685.184.943.262,1.925-.435.922.174-.814.9-.175.374.8.215.411.01.324-.626.334-.176.375-.045.269.131-.657.674-.84.372-2.114.309-.278.283.006.413.39.47,1.531.76-.408-.115-.522-.145-.458.158-.3.374-.223-.186-.238-.1-.252-.022-.252.033v.273l.367.061.209.278.1.393.022.4-.175-.138-1.078-.481-.3-.231-.192-.259-.209-.209-.348-.088-.3.122-.719.539-.243.124-3.136.339-.264.223-.442.709-.151.09-.14-.07-.1.017-.04.357.022.242.056.219.088.2.113.209.266.261.472.271.506.108.369-.248.407-.4.513-.049,1.5.417,1.416-.109.262.07.456.328.262.107h.218l.77-.226,2.226-1.239.842.226,1.025.657.451.081,1.893-.255-.432.289-.6.163-1.087.079-.511-.109-1.285-.674-.5.058-2.16,1.459.006.369.2.25.485.4-.153.278-.565-.556-.658-.339-.7-.146-1.02.07-.3.108-.209.286-.033.582.129.289,3.043,2.524,1.235.266.761-1.06h.151l-.038.364-.085.3-.309.6.247.289.358.252.387.17.334.07.222.1.236.487.182.139.139-.062,1.382-1.125,1.351-1.621.817-1.239.221-.257.24-.188.26-.07.189-.158.295-.676.209-.154.417-.08.323-.226.585-.732.227-.455.165-.213.431-.165.189-.335.18-.07.36-.03.3-.139.269-.316.269-.548.065-.3.04-.332.07-.274.171-.113.216-.066.25-.147.214-.209.089-.239.173-.3,1.209-1.082-.338.727-.374.615-1.377,1.513-.129.191-.209.515.005.22,1.588.765,3.363-.742-.349.246-1.644.381-.8.534-.424.127-.878-.278h-.458l-.6.539-.268.026-.517-.063-.455.4-.178.107v.278l.392.278-.253.474-.834.769-.181.248-.527,1.016-.056.145-.069.309-.079.177-.124.156-.094.08-.076.119-.063.273.279.038.33.377.242.115.247-.07.443-.373.225-.088.342-.273.084-.026.41.026.226-.055.684-.43-.214.331-.255.191-.52.238-.974.762-.379.166-.46.012-.5-.2-.487-.487-.115.524-.723,1.762.278.233.386-.8.241-.327.277-.136.335,1.411.329.239.572-.514,2.169.506.869-.107.225-.239.473-.791.835-.756.314-.57.225-.656.267-.545.448-.25-.429.608-.67,1.512-1.294,1.774-.549.476-.681.168-1.648-.47-2.054.182-.683.337-.516.728.086.306-.161.174-.266.127-.218.146-.158.293-.412,1.217.453.1.883-.3.487-.035v.23l-1.022.413-.556.065-.376-.229-.389.435-.2.475L536.38,130l-.224.765-.05.412.122.326.2.038.2-.186.192-.236L537,131l.849-.271.275.122.129.264-.038.268-.233.121-.4.093-.441.26-.248.388.183.487-.384.586-.348.7-.264.751-.131.753.473-.383.41-.636.463-.57.619-.179-.125.5-.139.328-.656,1.036-.082.244.038.312.131.573.059.061.125.088.138.14.1.232-.031.218-.162-.022-.17-.119-.052-.077v-.051l-.123-.085-.164-.08-.131-.035-.131.074-.052.152-.03.168-.064.127-1.534,2.244-.746,1.493-.113.968-.079.215-.035.258.061.213.208.081.076-.115.34-.652-.016-.8.881-1.029.122-.673.326-.2.272-.252.256-.139.262.117-.116.185-.12.127.086.166-.172.452-2.236,3.5.045.4.128.422.144.241.184,0,.369-.388.536-.282.7-.825.457-.238-.311.406-.369.353-.307.38-.13.486-.127.294-.86,1.308.1.285.022.97.153.5.279.361.277.17.556.209-.138.473.268-.013.246-.1.726-.6,1.977-2.251-.378,1.089-.637.956-.705.664-.586.259-.27.226-.347.531-.3.622-.131.5-.149.412-1.105.943.233.5-.079.72-.433,1.271L533.665,156l-.076.408.058.257.14.24.086.266-.287,1.057.034.806.1.816-.006.75-.2.375-.779.923-.572.48-.109.7.043.812.24,1.536.219.436.359.138.594.008.236-.07.458-.34.218-.1.24.012.4.2.195.051.481-.1.456-.234.4-.321.333-.348.676-.951.205-.545-.24-.233-.018-.146-.331-.814-.189-.27-.186-.19-.208-.088-.256.037v-.221l.473-.3.326-.487.455-1.207.09-.081.09.042.07-.018.028-.289-.022-.684.022-.19.127-.348.432-.86-.133-.675.24-.209.323-.138.126-.473-.159-.369-.248-.07-.184-.213.033-.826-.043-.106-.08-.164-.032-.156.438-.338.05-.293.051-.64.053-.3.147-.449.193-.4.225-.342.934-1.054.312-.222.7-.23.282-.239.14-.5-.184-.926-.509-.861-1.132-1.228.1-.074.1-.12.1-.076-.2-.183-.088-.04v-.25h.139v-.224l-.249-.242-.07-.284-.013-.34-.086-.417-.2-.721-.115-.03-.307-.161-.07-.081.149-1.96-.012-.238.006-.231.07-.192.15-.086.047.228,0,.32.015.167.383.126.5.041.444-.139.188-.41.062.033.125-.442.1-.516-.009-.183.155-.106.37-.033.186-.113,1.685-2.6,2.435-1.664.195-.262.488-1.283.221-.456.306-.278.348-.154.83-.07.349-.179.756-.844.357-.246-.4.965-.709.528-.78.348-.618.414-.326.487-.725,1.674-.2.209-.855.671-1.185.5-2.227,3.905-.5.577.255,1.065.037.31-.047.311-.2.4-.044.285-.018.664.018.335.07.259.156.186.163.089.123.131.125.908.213.284.688.252.892.515h.362l-.143-.643-.2-.556-.491-1.026.6-.878.1-.272.043-.362.127-.509.18-.482.209-.272v.76l.189.467,1.345,1.109.388.139.17-.348-.154-.765-.78-1.982-.32-.6.327-.258.154.3.107.461.819,1.1.077.726.208,1.039.29.929.326.4.648.139.234-.045.292-.319.195-.374.088-.336.06-.354.1-.427.174-.322.235-.289.2-.355.075-.522-.1-.417-.213-.287-.268-.184-.259-.128v-.248l.348.1.328.19.3.108.279-.149-.109-.417-.043-.487v-.711l-.088-.738.053-.278.257-.108.062-.57-.185-1.251-.284-1.286-.231-.654.275-.335.277.1.215.38.086.495-.035,1.118.153.287.439-.024.29-.428,1.172-2.455.282-.387.216-.166.1.139-.093.527-1.444,2.333-.8,2.1-.031.3.031,1.391.062.661.22.513.481.209.5.006.373-.07.134-.3-.231-.664-.966-1.467-.125-.454-.014-.367.106-.273.3.075.012.173.264,1.1.236.467.321.487.376.387.828.316,1.044,1.329.887.565,3.028.654-.5.337-3.4-.536-.438-.278-.232.105-.341-.059-1.3-.611-.275-.035-.383.083-.638.266-.465.4-.294.636-.125.973.209,2.6.1.371.122.313.135.434.084,1.223-.311.782-.9.958.4.586.661.6,1.182.782v.271l-.148.332.187.139.661.024,1.114.49.6.5.439.75.1.8-.428.659.743.25.491.622.184.871-.175.974-.492.714-1.358.647-.659.6-.193.408-.168.835-.123.348-.165.213-.371.314-.677.846-.113.218-.035.338.052.776-.017.348-.079.32L551.087,168l-.015.178.006.381-.042.118-.208.055-.1.081-1.321,1.809-.837.545-.4.41-.17.659-.055.724-.139.483-.361.867-.084.31-.042.236-.011.789.064.417.287.7.07.342.114.328.735,1.486v.239l-.083.124-.07.14-.358.376-.363-.061-.338-.316-.269-.387-.1-.325.032-.856-.015-.4-.1-.369-.15-.34-.3-.5-.1-.2-.193-.4-.209-.185-.094.412-.1.11-.227.033-.43-.028-.289.282-.139.642-.06,1.28.1,1.408.376,1.257.588,1.074,1.941,2.35.409.189.2.209.129.453.088.487.09.323.134.129.168.069.381.045-.088.266v.244l.084.236.154.22-.241.323-.017.584.127.547.195.25.422.11.875.47.44.118-.262-.575-.009-.173.006-.328.106-.636-.006-.306-.586-.51-.324-.835-.232-.835-.14-.383-.208-.154-.158-.363-.1-.41-.038-.3v-.258l.024-.182.081-.208.179-.313.308-.451.408-.436.465-.363.49-.223.776-.013.438.192.376.995.442.278.919.259,2.407,1.509.675.663,1.182,1.829.182.139.726-.018.192.08.517.4.431.19.465.07.216-.073.133-.165.1-.166.111-.074.14-.291-.1-.666-.067-.737.257-.518-.291-.509.1-.433.178-.4-.065-.455-.245-.332-.261-.185-.292-.08-.329-.018-.132-.236-.161-.516-.186-.83.056-.381.139-.444.16-.364.125-.145.328.081.139.248.1.389.193.506.179.25.236.188,1.521.734.307.038.329-.166.5-.63.3-.193-.178,1.415.719,1.2,1.043.686.8-.144-.2-.556.07-.6.233-.5.3-.262.009.163.283.125.042.364-.084.459.042.36-.008.031-.059.129-.057.1.049.09.069.053.07.017.082.037v.265l.636.052.969-.139,1.6-1.216,1.063-.482.2-.164-.7-.7.277-.227.136-.035L572,181.7l-.093-.369.315-.307.243-.4.075.113.036.1.027.266-.1-.159-.1-.052-.232.433.107.225.128.144.152.024.187-.129-.07-.07-.024-.011-.045-.182,1.447.234.442-.75.527-.081,1.906.184.337-.2.232-.573.037-.578-.038-.764-.1-.705-.163-.381.268-.968.583.525.318.125.349-.164-.036-.152-.011-.03-.019-.008-.063-.07.294-.118.3.1.319.18.342.1,6.495.482,1.726-.468.1-.024.5.226v.266l-.386-.155-.315.131-.313.2-.39.063v.244h1.4l-.362.259-1.7.513-.414-.033-.758-.25-.159-.131-.117-.152-.152-.124-.254-.082-1.285.39-.306.24-.528.584,1.021.52.258.208-.835.456-.222.023-.33-.127-.216-.265-.239-.185-.4.1-.478.581-.4.963-.666,2.075.187.6-.177.67-.325.588-.258.335-.216.154-.449.178-.168.148-.139.308-.287.881-.687,1.6-.544,2.744-.428,1.218-.1.081-.218.252-.149.264.209.243.215.5.1.118.335.186,1.922,2.7.477.43.7,1.461.486.242.059.07.042.357.149.5-.038.31-.088.287-.051.272.109.556.271.469.607.765.736,1.316.444.447.424-.188.322-.069.469.04.3-.166-.179-.668.2-.881.171-.364.32-.184-.036.7.046,1.182-.17,1.018-.676.208v.243l.312.263.008.506-.108.59-.062.535.2.248.238.152.279.074.324.025.187.175.721,1.009.017-.4-.06-.468.042-.39.556-.311.209-.338.347-.727.606-.782.088-.284.067-.385.115-.458.063-.487-.091-.474.273-.139.233.148.186.342.145.4-.187.348.123.556.279.509.274.225.918-.069.386-.241.16-.525.159-.367.375-.3.73-.4.608-.488.289-.417.08-.522h.139l.017.67-.314.617-.458.441-.436.178.07.325.78,1.558.344.513-.392.918-.239.347-.657.269-.278.328-.4.746-.175.177-.215.17-.139.2.043.272.321.744.1.094.626-.066.356-.144.357-.265-.1.556-.7.734.227.385-.147.076-.187.129-.155.178-.07.209-.07.154-.156-.063-.266-.209-.334.038-1.878.717-.472.3-.328.6.24.956-.233,2.6.146,1.156.566.816.748.337,1.753.024-.257.359-.819.584-.177.357-.168.123-1.087,1.415-1.343,2.235-.238.536-.051.477.11.476,2.359,5.183.487.756.654.7.786.562.874.33.9.1.352-.182.143-.5.225-.139,1.027-.246.3.016-.182.191-.184.123-.174.026-.173-.086-.175.2-.158.234-.058.313.115.437-.556.326-.289.086-.338.029-.149-.042-.307-.154-.182-.019-.154.1-.07.154-.021.139-.022.074-.632.033-.591-.279-.5-.447-.366-.487-1.207-3.17-.477-.579-.463-.035-.736.59-.418.163-.87.133-.371.209-.223.339.024.529.278.511.734.974.5,1.054.545.936v1.256l-.07.127-.146-.154-.255-.43-.3-.348-2.622-1.72-.232-.271-.187-.338-.432-.338-.773-.389-.854.033-3.882,1.925-.814.191-2.328.061-.32-.2-.333-.506-.421-.386-.444-.15-.4.217-.262-.322-.357-.214-.4-.115-.374-.043.154.4.6.62.2.626h-.689l-2.229.922-.7.588-.476.131-.449.215-.26.179-.149-.056-.167-.1-.17-.047-.639.054-.6.186-.538.352-.461.563-.424.883-.271.382-.363.154-.228.163-.816.993-.024.15-.151.388-.173.271-.082-.217-.062-.234-.135-.07-.134.139-.062.392-.038,1.416-.086.6-.168.443-1.335.874-.4.7-1.643,1.283-.4.218-.378.11-.389.036-.309.172-2.831,3.307-.293.54-.124.167.081.2-.022.155-.209.312.313.2.291-.139.286-.334.3-.192,1.144.119.453-.119.148-.115.113-.154.144-.132.24-.06.238.074.391.314.44.154.283.348.246.033.149-.07.149-.123.257-.272-.245-.361.006-.438.2-.383.324-.2-.049-.143-.076-.09.724-.838.386-.342.417-.225,1.417.02.407-.246.339-.209,1.475-.46,1.157.2.556-.052.525-.4.161.377.209.052.231-.163.234-.266.063.135.065.056.15.065-1.216.872-.128.139-.045.232v.473l.093.224.161.521.049.524-.232.239-.356.118-.058.272.1.313.391.826,1.558,1.909.344-.081.352-.284.54-.062-.264.34-.834.652-.218.08-.077.055-.048.139-.1.457-.07.09-.364.259-.428.642-.332.828-.07.835.231.516.932,1.285.314.26.556-.1,1.053-.377h.552v.25l-1.052.783-.356.129-.208-.052-.444-.23-.164.036-.128.282-.027.4.045.405.111.31-.232.472-.227.688-.17.766-.183,1.409-.275.75-.6,1.17-1.185,1.7-2.421,2.091-.377.111-.418.031-.334.093-.293.19-.607.734-.4.365-.4.279-.6.191-.139.189-.095.235-.133.165-.237.094-2.523-.094-.78.385.043.977-.673-.537-.279.008-.375.417-.5.826-.294.362-.4.278-.679.116-.159.128-.006.3.093.373.032.33-.186.132-.445-.07-.784-.31-.386-.065.14.447-.588.248-.392-.006-1.089-.595-.233-.057-.556-.038-.337.066-.225.174-.031.223.245.214v.2h-.292l-.06.849-.644.565-.835.315-.626.091-.266.147-.614.634-.381.143-.735.061-.191.189.16.425v.2l-.2.123-.051.1.038.112.07.142v.246l-.142.083-.139.118h.4l1.136-.228.292-.219.363.246.8.109.366.314.139-.221.282.264.17.41.08.49.024.51.108.826-.066.32-.321.324-.353.154-.684.135-.291.284-.24.337-.224.168-.292.064-.435,0,.4.121,1.011.778v.205l-.044.355.289.015.236-.287-.2-.533.361-.138,2.843.383.444-.018,1.582-.369.306-.328.07-.367-.289-.269.116-.482-.094-.3-.246-.139-.334,0,.253-.161,1.15-.1.591-.246.239-.166v.243l-.78.2-.339.672.117.793.579.584v.209l-.266-.15-.209.051-.5.344-.984.2-.688.4-.279.066-.294-.047-.533-.184-.3.012.044.106.05.248.044.111-1.567-.227-.129.227.392.451,1.007.257.3.635-.185.348.492.361,1.33.432.213.172.106.03.182-.079.17-.316.383-.17.187-.239.16-.292.184-.245.313-.214.309-.074,1.82.043.354-.362.139-.107.277.243.184.058.375-.929.048-.249v-.124l.044-.065.188-.028.043-.814.668-.487.854-.231.6-.063,1.534.209.78-.03.7-.383-.307-.3-.162-.316.07-.227.4-.07.173.243.176.156.209.049.127-.07.165-.27.113-.111.159-.347.131-.1.139.228v.3l-.1.305-.119.227-.061.069.188.4.314.234.378.093.372-.025-.195.291-.371.047-.84-.109.26.6.495.584.552.437.442.172,1.606-.248.3-.2,1.1.626.807.083.235-.024.167-.122.238-.3.1.063.018.234-.008.214-.435.74-.973.241-1.044.069-.632.209-.138-.143-.139-.1v-.2h.129l-.129-.245-.132.183-.221.41-.076.1-.7.223.007.508.179.418.052.344-.389.3.047.236.036.09.07.118.357.023,1.208.519.261.006.077-.339.185.013.225.154.209.057.2-.125.287-.348.213-.2.216-.1.193.011.511.125.208.16.139.043.091-.07.192-.307.065-.07.134.024.161.074.138.1.055.129.057.17.115-.059.1-.149v-.086h.846l-.15-.283-.209-.312-.156-.32.019-.309.182-.2.273-.177.289-.119,2.2-.269.269.075.18.194.322.623.191.247.352.235.168.174.245.436.227.54.2.616.149.642-.054.022-.061.018-.038.057.028.147.214.325.4.4.458.233.376-.178.284.024,1.195,1,.961,1.322.373.214,5.1.469,1.438-.608.307.043.389.128.359-.417.145-.7-.255-.7.124-.09.287-.038.146-.093.092-.154.117-.381.07-.139.529-.545.348-.254.308-.108,1.188-.758.109-.208.534-.67.19-.149.106.106.111.228.161.233.262.108,1.73-.125.863-.309,1.138-.789.966-.226.4-.314.574-.677,1.335-1.6.186-.32.193-.208,1.214-.805.288-.4.248-.445.278-.357.389-.149.4-.035.473-.154.364-.338.091-.613.3.295.053.369-.161.381-.329.3-.876.31-.353.2-.7.954-1.161,1.228-.125.191-.139.279-.113.3-.046.27-.07.293-.184.146-.208.092-.17.135-1.8,3.1-.418.43-.429.18-.487.042-.4.122-.362.209-.36.3-1.386,1.847-.753.737-.652-.138-.444.469.309.326-.131.3-.283.295-.158.3-.017.5-.076.3-.209.092-.4-.124.231.389.057.618-.008,1.216.064.307.07.174.04.216-.037.412-.07.242-.348.669-.278-.221.278-.462-.153-.229-.576.4-.8.119-1.35-.07-.738.1-1.461.462-2.334.106-.4-.189-.6-.58-2.556-.593-1.64.054-2.644-.7-.369.033-.65.348-.446.086H570.5l-.387.07-.765.29-3.732.348-1.552.622v.205l.228.153.149.274.032.348-.131.347-.15.055-.685-.055.139.279.347.53.07.2.045.237.244.878.127.313-.213.125-.127.178-.093.191-.113.191-1.38,1.547-.306.219-.417.132-1.182-.132-.209-.073-.417-.321-.226-.07h-1.815l-.1.2.019.447.075.468.081.248-.284.8-.14.271-.228,1.34.1,2.842-.556,1.12-.849.641-.383.446-.159.565-.239.4-1.448,1.246-.279-.08-.208.152-.07.347.124.473-.323.53-.233.585-.324.467-.588.193-1.518.1-.509-.1v.2l.107.33-.1.272-.031.295.319.414.674.25.353.218.223.422-.33-.159-.842-.049-.371-.227-.076.105-.051.047-.139.086-.016-.362-.056-.435-.088-.374-.118-.18-.154.043-.267.306-.149.113h-.417l-.406.323-.2.438-.07.557-.024.646-.186,1.242-.189.435-.043.183-1.42.762-.154-.013-.308.023-.231.156.139.639.027.4-.017.374-.069.163-.278.093-.752.523L541.894,336l-.757.426h-.729l-.107.117-.059.295-.144.316-.3.473-.422.26-.409-.2-.633-.611-.448.013-.784.509-.7.242-1.3.755-.6.225-.16.115-.385.659-.04.11-.077.148.034.335.113.6.032-.006.07.086.056.154v.2l-.088.129-.146.062-.2.024.209.958.773.309.974-.111.835-.27.3-.152.367-.3.224-.428-.123-.556-.006-.437.392-.328.531-.185.427-.025.339.144.684.426.828.146,1.228.586.4.289.326.4.583.957.145.306.008.227-.017.259.074.392.086.221.1.156.616.683.209.172.183.07.07-.17.238-.742.606-.719.138-.118.248-.038.417.083.186-.045.582-.878.266-.584-.086-.266-.086-.094-.07-.426-.047-.133-.1-.033-.234.041-.1-.008-.291-.178-.175-.047-.231.01.654-.3.182-.135.082-.234-.013-.259.028-.232.195-.144.25-.172.135-.06.17.011-.307-.357-.124-.093v-.2l.26-.348-.037-.364.014-.278.4-.113.26.234.12,1.125.247.393.849-1.471.279-.278.867-.293.355-.2.379-.463.386-.164,1.012.159.209-.223.038-.173.241-.6v-.139l-.111-.208-.033-.2.076-.2.168-.236.188-.2.143-.117v-.253l-.161-.41.229-.259.417-.138.414-.038.118-.056.109-.105.119-.08.146.018.278.875h.119l.1-.07.064-.1,0-.047,3.355-.2.8-.309,1.481-.933.938-.1,1.74.456.355.212.189.458.218.388.435.033v-.2l-.11-.223.023-.215.134-.168.232-.084v-.2h-.572l.154-.241-.4-.041-.168.041v-.215l.707-.2-.46-.352-1.159.191-.349-.5.99.086.267-.086.18-.248.069-.336-.083-.326-.3-.2v-.195h.248L564.4,330l.156-.225.087-.348.22.189.209.013.406-.2-.216.457-.279.429-.153.451.154.531.165.328.088.259.121.2.261.182.224.049.753-.049-.279.6.209.486.456.332.447.131-.078.295-.047.115.323.282.209.121.23.054.166-.077.275-.306.115-.074.2-.07.522-.3.19-.047.222.1,1.344,1.232,1.182,1.468.765.7.3-.339.318.041.369.187.459.111.348-.039.821-.243.307-.156-.159-.8.119-.75.209-.658.109-.543.214-.306.458-.123.439-.259.148-.714.326.278.319.1.246-.172.136-.8.107-.166.154-.083.184-.035.018-.115.208-.556v-.216l-.911.05-.353-.175-.145-.531.14-.459.352-.265.454-.117.461-.033-.364-1.334-.017-.626.227-.873.269-.654.3-.549.325-.442.362-.348-.179-.431-.266-1.1-.257-.291-.023-.151.023-.148.07-.07.119.028.064.074.044.066.056.035.086.129.264.765.252.481.279.265.341.113.459.023,1.482-.66.31-.437.188-.424.231-.326.835-.2.687-.313.39-.07.231.049.389.174.208.018.2-.088.339-.289.1-.062.456-.392.238-.073.773.22.487-.059.723-.479,1.538-.36.458.02,3.51,1.315,4.272,3.288.474.8.015,1.207h.125l.29-.449.216-.506-.053-.406-.513-.172-.188-.307.115-.686.252-.682.239-.315.765-.248.433-.07.7.442,3.782.424,1.536.726.348.076,1.657-.038.378-.172-.043-.48.708-.882-.113-.041-.3-.19.145-.547-.139-.248-.3-.066h-.335l-.377-.086-.24-.243-.43-.794-.226.191-.229.147-.241.086-.268.038.708-1.157.184-.16.1.09.174.427.07.117.163.042.536-.042.785.22.069.174.034.332.09.22.219-.166.311-.369.36-.287.384-.209.41-.129.458-.024,1.289.241.374-.088.786-.417.451-.129.454-.006,1.4.265.438.293.4.118.039-.008.044-.125.664-1.223.668.125.09-.013.232-.184.526-.191.931-.174v-.195l-.135-.129-.148-.119.3-.1,1.309-.117.458-.166.064-.381-.187-.437-1.591-1.788-.5-.607-.256-.045-.376-.238-.2-.105v-.2l2.6,1.461.769.936.27.147.674.236.477.417.663.348.132.3.145.2.331.2.375.148.265.018.266-.253.077-.348-.053-.626-.118-.2-.718-.605.305-.093,1.275-.1.371.2-.127.438-.373.551-.2.57.414.469.545-.07.277-.611.183-.775.264-.572.386-.111.634.009.643.12.415.221-.209.437.147.039.252-.144.1-.111.238.131.4.4.2.156v.2l-.586.238-.273.209-.113.332.148.19,1.862,1.194.464.156.393-.223.095-.332-.138-.605.114-.283.189-.078.172.109.168.149.179.063,3.344-1.121h3.5l2.609-.941.751.3.547-.3.671.07,4.243,1.555.869.059.375.125.355.348.19.11.718-.014.226.045.934.352.4.063.766-.013.758-1.077.7-.463.039-.121.205-.348.221-.295h.1l.758-.341,4.425-.947.823-.369,2-1.957.809-.27,2.921.965.7-.282-.214-1.252-.055-.835.2-.38,1.047-1.522.8-.739.417-.284.4-.105,1.338-.038.4-.166.154-.16.176-.233.2-.2.24-.086.444.029.227-.016.565-.433,1.36-.467.556-.668.417-1.035.167-1.244-.176-1.285-.337-.865-.148-.547-.06-.7.108-.118.727.006.131-.108.116-.158.1-.2.07-.2.191-1.07-.5-.3-6.59.613-2.524.781-4.345-.49-.224-.233-.289-.537-.221-.6-.04-.412-.435-.02-.1.312.094.451.161.388-.835-.227h-1.759l-.189-.082-.15-.2-.139-.221-.157-.189.369-.237.75-.182.644-.626.317-.011.729.168.426-.055.209-.18-.024-.319-.257-.463-.3-.209-3.27-.483-1.326.363-.1.107-.07.234-.091.225-.168.106-1.308.221.3-.168.3-.115.294-.168.266-.324.131-.369.056-.328.11-.241,1.411-.367.563-.038.33.315.27-.266.265-.07.278-.014.3-.1.389-.374.027-.059.131-.016.272.008.015.008.562-.033,1.616.262.92-.3,1.163-.728,1.043-.947.561-.94-.077-.144-.2-.123-.55.044.313-.236.159-.16.07-.177v-.766l.076-.278.209-.178-.164-.4-.074-.258-.042-.258.045-.055.087-.248.055-.319-.035-.278-.315-.328-.36.07-.588.487-.626.259-1.306.289-.581.572-.229-.522-.347-.173-.369-.051-.318-.156.453-.262.942-.377.5-.053.2.051.454.19.25,0,.209-.106.326-.282.239-.064.108-.177.09-.4.062-.39.009-.178.149-.082.636-.591.749-.371.311-.358.049-.617.187.433.667.912.324.673.188.163.383.063,1.431-.217.661-.273,1.049-.715,1.166-1.084.243-.524-.03-.7-.1.042-.152.332-.213.209-.74-.111-.321-.139-.262-.2,1.612-1.656.07-.626-.409.248-3.4-.217-.535-.252.519-.083.992-.337.453-.027.571.38.255.07.246-.031.431-.139.239-.033.417.107.07-.15.018-.535-.1-.148-.214-.11-.934-.217-.428-.313-.727-.69v-.22l.556.111,1.018.819.6.2,1.391,1.789.231-.086.232-.369,1.424-1.582.5-.765.139-.118.165-.221.059-.424.106-.272.3.233.347-.394,1.6-.684.105-.177.04-.455.29-.9.079-.6.365-1.146.113-.644-.054-1.5.047-.855.217-.369.221-.248.644-1.182.9-2.395.047-.314-.022-.326.519-1.728.257-.323.084-.3-.483-1.568.026-1.2-.038-.664-.127-.516.131-.709-.264-.992-.373-.98-.383-1.588-.486-.828-.6-.676-5.065-3.9-2.477-1.274-6.3-1.53v.23l.265-.026.253.03.241.094.216.152-.927.432-.966-.246-.928-.449-.814-.217H665.7l-.436-.1-.455-.191-.451-.111-.412.154.151.252-.988-.041-1.1.216-1.007.471-.7.739-.279.574-.316.826-.262.912-.111.819-.262.446-.534.606-.411.626.109.528v.226l-.3-.151-.574-.826-.332-.192-.814-.078-.431.059-.362.273-.5-.611-1.052-1.63-.487-.332-.278-.11-.574-.472-.264-.115-1.058.254-.62-.042-.035-.412.272-.473.322-.221.48-.191.426-.461,1.609-2.383.278-.213.38-.161,1.822-1.855.334-.213.408-.09.225-.092.124-.239.426-1.773-.01-1.453-.286-1.28-1.669-4.607-.086-.467-.229-.533-.321-.481-.347-.267.15-.231-.588-.426-.182-.059-.117-.135-.059-.308-.04-.359-.062-.252-.333-.389-.359-.162-.386-.088-.394-.182-1.954-1.6-.953-1.2-.291-.121-.718-.113-.353-.252-.626-.756-.914-.474-1.461-2.29-.389-.69-.567-.244-3.656.682-.563.449-.323.123-.307-.2-.218-.238-.83-.6-.478-.127-.616.037-.562.27-.309.541-.158-.166-.17-.139-.179-.1-.188-.07,1.392-.941.433-.139,1.182.139.056.081.506.5.145.064.691-.166h1.622l2.567-.876.916.148.717.527,1.942,2.545.357.289.418.226.47.139.5.051.43-.11.791-.5.4-.092.442.166.886.652.417.144.325.25-.093.584-.447,1.061.444-.363.115-.129.25-1.113-.325-1.133-3.644-5.454-2.163-3.384-.358-1.043-.584-2.263-.45-.974.5-1.379.626-.723,1.808-1-.739-.67-2.5-1-.541-.58-.042-.139-.145-.922-.157-.322-.469-.241-.244-.245-.2-.154-.834-.22-.158-.185-.383-.566-.171-.186.055-.139.087-.355-.209-.08-.162-.177-.11-.23-.075-.231-.007-.7-.25-.881-.348-.835-.306-.556-.287-.289-.677-.5-.215-.295-.062-.357.039-.278-.023-.312-.245-.487-.575-.581L634.3,192.1l-4.195-1.312-.99-.666L628.25,190l-.4-.143-.344-.3-.357-.474-.176.993-.123.183-.246.053.038-.079-.052-.173-.08-.168-.058-.086-.1-.024-.031.088-.017.118-.054.055-.2-.017-.144-.067-.1-.143-.054-.254.487-.219.2-.175.166-.3-.166-.192-.12-.23-.081-.26-.049-.283-.115-.209-.033-.108-.006-.162h.417v-.259l-1.079-.492-.312-.233-.714-.942-.438-1.107-1.2-4.406.055-.321-.148-.131-.049-.314-.024-.789.009-.209.037-.16-.02-.214-.154-.385-.57-.6-.07-.1-.229-.168-.139-.409-.093-.45-.107-.314-.184-.319-.335-.9-.07-.3-.029-.1-.077-.061-.261-.117-.08-.07-.07-.219-.184-.757-.07-.77-.095-.26L619.4,171l-.086-.367.092-.313.139-.3.054-.351-.125-.366-.2-.189-.1-.224.163-.468-.465-.515-.256-.394-.111-.417-.049-.241-.08-.221-.038-.236.091-.264.076-.154.058-.151.04-.162.026-.164-.061-.636-.5-.92-.125-.778,0-.314.018-.2.106-.585.033-.347-.07-2.413-.09-.432-.145-.147-.2-.123-.1-.171.17-.314v-.246l-.391-.373-.178-.111v-.246l.279-.232-.213-.245-.144-.262-.036-.26.113-.234v-.248l-1.394-1.008-.439-.055-.719.2-.249-.147v-.224h.417l-.182-.514-.247-.306-.261-.132-.226-.029-.079.077-.09.18-.13.172-.189.062-.1-.128-.093-.258-.113-.26-.437-.307-.209-.449-.3-.838-2.692-3.471-.275-.544-1.164-2.3-.392-.451-.439-.182-.164-.111-.048-.27-.029-.334-.106-.3-.184-.093L603.271,143l-.874-.477-1.3-1.1-.781-.252-.831-.593-.3-.321-.139.168-.208.185-.085.148-.308-.224-.52.1-.287-.106.106-.19.186-.6-.371-.235-.586-.814-.387-.174-3.42-.25-.418.186-.6.725-.375.334.093.144.062.163.111.437-.506.067-.348.449-.337.568-.476.412-1.543.683-1.278.129-.255-.044-.123-.136-.367-.52-.145-.113-3.706-.307-.347-.3-.216-.294-.208-.015-.354.174h-.965l-3.507-.995-.457-.006-1.153.252-.244-.09-.136-.216-.1-.242-.145-.2-.143-.016-.39.078-.175-.062-.105-.269-.7-1.252-.168-.1-.175-.284-1.222-.864v-.225l.417.013.279.188.431.547.75.728.721.514.787.267,1.808-.031,3.3.974.8.058.8-.139.808-.378.707-.488.409-.187,1.429-.076.3-.209.23-.536.284-1.229.218-.392.41-.147.334-.2,1.134-1.3,1.085-.774.155-.339.213-.269.5-.139.974.019,1.258.666.5.085.46-.131,1.3-.892.983-.225.482-.23.374-.728,1.086-1.068v-.232l-.743-.655-.162-.1-.7-.646-.445-.232-1.865-.147-.14-.258-.148-.079-.181-.033-.23-.107-.042-.138-.088-.5-.078-.113h-.5l.328-.375.271-.55.15-.658-.039-.7-.246-.46-.723-.058-.36-.359-.354-.227-.492.088-.437.278-.188.348-.209.246-4.07,2.075-.794.2-.86.517-.428.117h-.859l-.353-.132-.247-.348.884.293.858-.361,2.126-2.178.707-.548.792-.367,6.037-.873.255.08.161.148.144.1.2-.09.392-.974.183-.289.78-.386.417-.3.347-.779,1.91-1.375.318-.4.213-.641.366-.394.113-.26-.012-.216-.127-.508v-.289l.2-.548.278-.375.247-.451.226-1.63.289-.611.364-.43.348-.308,1.134-.734.332-.4.492-.879.55-.785.7-.56.3-.418.123-.671.082-.193.376-.49.1-.209v-.454l-.1-.275-.123-.228-.055-.316.266-1.344.626-1.347,1.843-2.968.337-.708-.063-.323-.388-.306-.052-.7.111-.762.486-1.957,1.317-3.5.522-.824,2.137-2.009.049-.524.357-.68.835-1.15.474-.41.139-.235L614.2,85.8l-.19-.156-.023-.323.139-.285.291-.032-.577-.667-.218-.417.085-.474v-.234l-.319-.607-.113-.67-.07-.689-.183-.654-1.733-1.952-.231-.507-.144-.161-.247-.012-.339.3-.247-.034-.177-.213-.179-.352-.12-.33-.018-.148-2.255-.077-.329.077-1.221.929-.528.115-.413-.139-.9-.562-.432-.082-.177.078-.184.154-.149.2-.064.218-.11.182-.247-.07-.393-.246-.187.07-.348.34-.229.131-.223-.058-.184-.172-.156-.062-.148.291-.963-.5-.369-.042-.265.174-.145.287-.163.058-.326-.52-.64.033-1.744-.61-.7.338-.209-.228-.165.029-.168.127-.23.079-.208-.084-.209-.375-.139-.088h-3.222l-.34.127-1.26.918-.828.262-.892-.032-2.682-.933L583.33,76.52l-2.541-.106-.248.07-.541.341-.262.1-.25-.051-.2-.113-.184.031-.2.391.115.441-.194.487-.326.414-.294.226-.389.081-.406-.051-.746-.268.417,1.015-.31.077-.278.121-.262.028-.266-.226.163-.182.1-.177.151-.418-1.219.283-3.117,2.338-.626.194-1.96-.194-1.872.3-.566-.042.765.7.234.417-.369.184-.29.079-.32.209-.3.292-.381.568-.214.11-.463.041-.015.105-.153.25-.33.422-.429.219-.369-.024-.738-.2.238-.3.229-.385.371-.869-.25-.189-.278-.067-.588.022V82.93h1.112l.472.147.139-.055-.19-.352.348-.453.393-.231.947-.093-.081-.08-.07-.1-.063-.139-.067-.195.713-1.155.6-.473.59-.738.424-.792-.1-.481-.31.052-.886.566-.26.284-.327.259-.445.012-1.028-.228-.268-.344-.236-.106-.168.019-.871.456-.785.823-.929.572-.248.348-.209.375-.284.388-.3.3-.613.264-.278.216-.1-.029.17-.588.164-.379.184-.25,1.322-1.353.29-.119.31-.25.139-.527.15-.44.349-.014.38.07,1.329-.376.519-.035.272-.119,1.575-1.436.719-.268.542.533-.25.6.1.376.323.153.4-.085.266-.278.539-.826.466-.378,2.772-3.662.163-.335.054-.626-.134-.373-.252-.039-.308.357-.579.852-.73.7-.758.348L569.807,73l.278-.5-.362-.487-.655-.151-1.152.928-.719-.2-1.306-.9.115.641-.332.008-.487-.348-.348-.431-.358-.348-.427.08-.824.4-.782-.172-.65-.55-1.078-1.63.411.145.39.358.657.922.451.32,1.646-.437.57.161,1.171.607.574.017.165-.139.354-.494.191-.15.311,0,.607.241h.321l-.088-.434.1-.4.424-.714-.433-.746-.139-.172-.31-.154-.638-.029-.3-.238-.176-.338-.057-.313.094-.154.584.348.527.07.278.154-.139.231.092.1.336.19.013-.4.074-.323.139-.226.2-.121,1.307-.918.647-.153.511-.287.182-.192.113-.278.2-.78.177-.408.374-.383,1.514-.776,4.484-3.712.855-.974.381-.643.16-.641.184-.361,1.086-1.1.72-.449,1.785-.643.856-.5.764-.889,1.082-1.582.888-1.75.184-1.374.213-.064.184-.22.091-.348-.069-.457-.157-.209-.195.045-.228.136-.254.027-.432-.265L586.5,46.6V45.97l.227-.764.149-.257.536-.515.184-.332.307-.7.23-.325.1-.581.389-.8.128-.712-.687-.31-1.346.278h-.68l-1.06-.781-.825.082-1.337.422h-.626l-.15-.15-.077-.348-.051-.359-.081-.209-.342-.061Z" transform="translate(-523.084 -39.541)" fill="#0052b4"/>
  <path id="Path_7837" data-name="Path 7837" d="M535.951,102.277l.392.19.475.069.529-.4.93-1.318.228-.24ZM572.537,83.75l-.579.852-.73.695-.758.348-.664-.192.278-.5-.362-.487-.655-.151-1.152.927-.719-.195-1.306-.9.115.641-.332.008-.487-.347-.348-.431-.357-.348-.427.081-.824.4-.06-.013-24.212,16.14.214.049L539,101.39l-.907.852-2.283,1.094-.479.086-.1-.133-.117-.248-.117-.125-.241.161-.149.172-.44.273-.17.179-.477,1.164-.081.127.177.514.417.039.881-.294.4.088.777.364.428.061.408-.139.715-.517.352-.115.239-.236.26-.463.342-.313.494.216v.282l-.491.193-.495.536-.262.557.191.256.2.107.2.255.3.55.188.172.849.2v.257l-.8.256-.689-.527-.639-.78-.657-.5-.706.154-.853.551-.5.714.377.641-.268.517-.714,1.033-.144.642.255.383,1.709.52.231.223.522.666.145.139.27-.043.479-.191,1.713-.3.4.258v.278h-.139l-.147-.07-.337-.093-.338.019-.153.272-.1.12-2.007-.025-.412-.224-.866-.662-.51-.208-.36.217-.209.176-.6-.064-.249.023-.143.14-.242.417-.851,1.113-.306.617.224.282.216.073.349.348.209.092.225-.035.417-.2.182-.024.446.326-.033.522-.077.476.31.209.417.159.431.29.443.127.458-.324.274.145.3-.1.326-.191.354-.1v.252l-.983.5-1.113.271-.67-.108-.318-.152-.29-.229-.237-.314-.406-.728-.193-.231-.53-.106-.626.228-.572.408-.362.463-.222.739-.181.865-.228.765-.36.437.412.426.158.1v.278l-.721.047-.685.184.943.262,1.924-.435.922.174-.814.9-.175.374.8.216.411.01.324-.626.334-.176.375-.045.27.131-.658.673-.84.373-2.114.308-.278.284.006.412.39.47,1.531.76-.408-.115-.522-.145-.458.159-.3.373-.223-.185-.238-.1-.252-.022-.253.033v.272l.367.061.209.279.1.392.022.4-.175-.139-1.078-.48-.3-.231-.193-.259-.208-.209-.348-.088-.3.121-.719.539-.243.124-3.136.34-.264.222-.442.709-.151.09-.14-.07-.1.016-.04.357.022.243.056.219.088.2.113.209.266.26.472.272.506.108.369-.248.406-.4.514-.049,1.5.417,1.416-.109.262.069.456.328.262.107h.217l.77-.226,2.227-1.239.841.226,1.026.657.451.081,1.893-.255-.432.289-.6.163-1.087.079-.511-.11-1.285-.673-.5.058-2.159,1.459.006.369.2.25.485.4-.153.278-.565-.556-.658-.339-.7-.146-1.02.069-.3.108-.209.287-.033.582.129.288,3.043,2.524,1.235.267.761-1.06h.151l-.038.364-.085.3-.309.6.247.29.357.252.387.17.334.07.222.105.236.487.182.139.139-.062,1.382-1.125,1.351-1.621.817-1.239.221-.257.241-.188.26-.07.188-.158.295-.676.209-.154.417-.081.323-.225.585-.732.227-.456.166-.213.43-.164.189-.335.18-.07.36-.03.3-.139.269-.316.269-.549.065-.3.04-.332.07-.274.171-.113.216-.067.25-.146.214-.209.089-.239.173-.3,1.209-1.082-.338.727-.374.615-1.377,1.513-.128.191-.209.515.005.22,1.589.765,3.363-.743-.349.247-1.644.38-.8.535-.425.127-.878-.278h-.458l-.6.539-.268.026-.517-.063-.455.4-.178.107v.278l.392.279-.253.473-.835.769-.18.248-.528,1.016-.056.145-.069.309-.078.177-.124.156-.094.08-.076.119-.063.273.279.038.33.378.242.115.247-.07.443-.373.225-.088.341-.273.085-.026.41.026.226-.054.684-.43-.214.331-.255.19-.52.239-.974.762-.379.166-.46.012-.5-.2-.488-.488-.115.524-.723,1.762.279.233.386-.8.241-.328.277-.135.335,1.411.329.238.572-.513,2.169.506.869-.107.225-.239.474-.792.835-.755.314-.57.225-.656.268-.545.448-.25-.429.608-.67,1.512-1.294,1.774-.549.476-.681.168-1.648-.47-2.055.182-.683.337-.515.728.086.306-.161.174-.266.127-.217.145-.158.294-.412,1.216.453.105.883-.3.487-.035v.229l-1.022.414-.556.065-.376-.23-.39.436-.2.475-.248,1.371-.225.765-.049.412.122.326.2.038.2-.186.192-.236.184-.12.849-.271.275.122.128.265-.038.268-.232.121-.4.093-.441.259-.249.388.184.488-.384.586-.349.7-.264.75-.132.753.473-.383.409-.636.463-.57.62-.179-.125.5-.139.328-.657,1.036-.082.244.037.312.131.572.058.061.125.088.138.14.1.233-.031.217-.162-.022-.17-.119-.052-.077v-.052l-.123-.084-.163-.08-.132-.035-.131.074-.052.153-.031.168-.063.127-1.534,2.245-.746,1.493-.113.968-.079.215-.036.258.061.213.209.081.076-.115.34-.652-.016-.8.881-1.029.123-.673.326-.2.271-.252.257-.139.262.116-.116.186-.121.127.087.166-.173.453-2.235,3.5.045.4.128.422.144.242.183,0,.369-.388.536-.282.7-.824.457-.238-.311.4-.369.353-.307.379-.129.487-.127.294-.859,1.308.1.285.022.97.153.5.279.361.278.17.556.209-.138.472.268-.012.246-.1.727-.6,1.977-2.251-.378,1.089-.637.956-.705.664-.586.259-.27.227-.347.531-.3.622-.131.5-.149.411-1.105.944.233.5-.079.719-.433,1.271-.483,1.069-.075.409.058.256.14.241.086.265-.287,1.057.034.806.1.816-.006.75-.2.375-.778.922-.572.481-.109.7.043.812.24,1.536.219.435.359.139.594.008.237-.07.458-.34.218-.1.239.012.4.2.2.05.48-.1.456-.234.4-.321.334-.348.676-.951.2-.545-.239-.232-.017-.146-.331-.814-.189-.27-.186-.191-.208-.088-.256.038V173.8l.473-.3.326-.486.455-1.207.09-.081.09.041.07-.017.029-.289-.022-.684.022-.19.126-.348.432-.859-.132-.675.24-.209.323-.139.126-.472-.158-.369-.248-.07-.184-.213.033-.826-.043-.106-.08-.164-.032-.156.437-.338.051-.293.051-.64.053-.3.146-.449.193-.4.226-.342.934-1.055.311-.221.7-.231.283-.238.14-.5-.184-.926-.509-.861-1.132-1.228.1-.074.1-.12.1-.077-.2-.184-.088-.04v-.25h.138v-.225l-.248-.242-.07-.284-.014-.34-.086-.417-.2-.721-.115-.031-.307-.161-.07-.08.149-1.961-.012-.238.006-.23.07-.192.15-.086.047.229,0,.32.015.166.383.127.5.041.444-.139.188-.41.062.033.125-.442.1-.516-.009-.184.154-.106.371-.033.186-.113,1.685-2.6,2.434-1.664.2-.262.487-1.283.221-.456.306-.278.348-.154.83-.07.348-.179.757-.844.357-.247-.4.965-.709.529-.78.347-.618.415-.326.486-.725,1.675-.195.209-.856.67-1.185.5-2.226,3.905-.5.577.255,1.066.037.31-.047.311-.2.4-.043.285-.018.664.018.335.07.26.156.186.162.09.124.131.125.908.213.284.688.251.892.516h.362l-.143-.643-.2-.556L543.376,157l.6-.878.1-.273.043-.361.127-.51.179-.482.209-.271v.76l.189.467,1.345,1.109.389.139.17-.348-.154-.766-.78-1.981-.321-.6.328-.258.154.3.106.461.819,1.1.076.726.209,1.039.29.929.326.4.648.14.234-.046.291-.319.2-.373.088-.336.06-.354.1-.428.174-.321.235-.289.2-.355.074-.522-.1-.417-.213-.287-.268-.185-.259-.127v-.248l.347.1.329.191.3.108.279-.149-.108-.418-.043-.486v-.711l-.088-.738.053-.278.257-.108.062-.57-.186-1.252-.283-1.285-.231-.654.275-.335.278.1.215.38.086.495-.035,1.118.153.287.439-.024.29-.427,1.172-2.455.282-.387.216-.166.1.139-.093.527-1.445,2.333-.8,2.1-.031.3.031,1.391.062.661.221.513.481.209.5.006.374-.07.134-.3-.231-.664-.966-1.467-.125-.454-.014-.367.106-.273.3.074.012.174.264,1.1.236.467.32.487.376.386.828.317,1.043,1.328.888.564,3.028.655-.5.336-3.4-.535-.437-.278-.233.1-.341-.058-1.3-.611-.275-.035-.383.083-.638.265-.465.406-.294.635-.125.974.209,2.6.1.371.122.313.135.434.083,1.223-.31.782-.9.958.4.586.661.6,1.182.782v.272l-.148.332.187.139.661.024,1.113.49.6.5.439.75.1.8-.428.659.743.25.491.622.184.871-.175.974-.492.714-1.358.647-.659.6-.194.409-.168.835-.122.348-.165.213-.371.314-.677.846-.113.218-.036.337.052.777-.017.348-.079.319-.468,1.206-.015.177.006.382-.042.118-.209.055-.1.081-1.321,1.808-.837.545-.4.41-.17.658-.055.725-.139.483-.361.867-.084.31-.042.236-.011.789.063.417.287.7.069.341.115.328.734,1.485v.239l-.083.124-.069.14-.358.377-.363-.061-.338-.316-.27-.387-.095-.325.032-.856-.015-.4-.1-.369-.15-.34-.3-.5-.1-.2-.193-.4-.209-.186-.094.413-.1.11-.227.033-.43-.028-.289.282-.139.642-.06,1.28.1,1.408.376,1.256.588,1.075,1.941,2.35.409.19.2.209.129.454.088.486.091.323.134.129.168.07.381.045-.088.266v.244l.083.236.155.22-.241.322-.017.584.127.547.195.25.422.109.875.471.44.117-.262-.575-.009-.173.006-.328.107-.636-.006-.306-.586-.51-.323-.835-.232-.834-.14-.383-.209-.154-.157-.363-.1-.41-.038-.3v-.258l.024-.182.081-.209.179-.313.308-.451.408-.435.465-.363.49-.223.776-.013.437.192.377.995.442.278.92.259,2.406,1.508.676.664,1.182,1.829.182.139.726-.018.192.08.517.4.432.19.465.07.216-.074.134-.164.1-.166.111-.074.14-.291-.105-.666-.067-.737.257-.517-.291-.509.1-.433.179-.4-.065-.454-.246-.332-.26-.185-.292-.08-.329-.019-.133-.236-.161-.515-.186-.83.056-.381.139-.444.16-.364.125-.146.328.082.139.248.1.389.193.506.179.25.236.188,1.521.734.307.038.329-.166.5-.63.3-.193-.178,1.415.718,1.2,1.044.686.8-.144-.2-.556.07-.6.233-.5.3-.262.009.163.282.125.043.364-.084.458.041.36-.008.031-.059.129-.057.1.049.09.07.053.07.017.082.038v.265l.636.052.969-.139,1.6-1.217,1.064-.482.2-.163-.695-.7.278-.227.136-.035-.044-.139-.093-.369.315-.308.242-.4.076.113.036.1.027.266-.1-.159-.1-.053-.231.433.107.225.128.145.152.024.187-.129-.07-.07-.024-.011-.044-.182,1.447.234.442-.749.527-.082,1.906.185.336-.2.233-.572.037-.578-.038-.765-.1-.7-.163-.381.268-.969.584.526.319.125.349-.164-.036-.152-.011-.03-.02-.008-.063-.07.293-.119.3.1.319.181.343.095,6.495.482,1.726-.467.1-.024.5.226v.265l-.385-.155-.316.131-.312.2-.39.063v.244h1.4l-.361.259-1.7.513-.414-.033-.758-.25-.159-.131-.118-.152-.152-.124-.255-.082-1.284.39-.307.239-.527.584,1.021.52.257.209-.834.456-.222.022-.33-.127-.217-.265-.238-.185-.4.1-.478.581-.4.963-.666,2.075.187.6-.177.67-.326.588-.258.336-.216.154-.449.178-.168.148-.139.308-.287.881-.688,1.6-.543,2.744-.428,1.217-.1.082-.218.252-.149.264.209.242.214.5.1.118.335.186,1.921,2.7.478.43.7,1.461.486.242.059.07.042.357.148.5-.038.31-.088.287-.05.272.109.556.271.469.607.765.736,1.316.443.446.425-.187.322-.07.469.041.3-.166-.179-.668.2-.881.171-.364.32-.184-.036.7.047,1.182-.17,1.017-.676.209v.242l.312.264.008.5-.109.59-.063.535.2.248.238.152.279.074.324.025.187.174.721,1.01.017-.4-.06-.468.042-.391.556-.31.209-.338.347-.727.606-.782.088-.284.067-.385.115-.458.063-.487-.091-.475.273-.138.233.148.185.341.146.4-.187.348.123.556.279.51.274.225.918-.07.386-.241.16-.525.159-.367.375-.3.73-.4.608-.487.289-.417.08-.523h.139l.017.671-.314.617-.458.441-.436.178.07.325.78,1.558.344.513-.393.917-.238.348-.657.269-.277.327-.4.746-.175.178-.215.17-.139.2.043.272.321.744.1.094.626-.067.355-.144.357-.264-.095.556-.7.734.227.385-.147.076-.187.128-.155.179-.07.209-.07.154-.156-.063-.266-.209-.334.038-1.878.718-.472.3-.327.6.239.955-.232,2.6.145,1.156.567.816.747.337,1.754.024-.258.359-.819.583-.177.358-.168.123L588.69,236.1l-1.343,2.235-.238.536-.051.477.109.476L589.527,245l.487.757.654.7.786.563.874.33.9.1.352-.182.143-.5.225-.139,1.027-.246.3.016-.182.191-.184.122-.174.026-.174-.086-.175.2-.157.235-.058.313.115.437-.557.326-.288.086-.338.03-.149-.043-.308-.153-.182-.019-.154.1-.07.154-.021.138-.022.074-.632.033-.591-.278-.5-.447-.366-.487-1.207-3.17-.477-.579-.463-.035-.736.59-.418.163-.869.133-.371.208-.223.34.023.529.279.511.734.974.5,1.053.545.937v1.256l-.07.127-.146-.154-.255-.429-.3-.348-2.622-1.72-.232-.271-.187-.338-.432-.338-.773-.388-.854.033-3.882,1.926-.814.191-2.327.06-.32-.2-.333-.507-.421-.385-.444-.15-.4.216-.262-.321-.357-.214-.4-.115-.373-.044.154.406.6.62.2.626h-.689l-2.229.921-.7.588-.476.131-.45.215-.26.179-.149-.056-.167-.1-.17-.047-.639.054-.6.185-.538.353-.461.563-.424.883-.272.383-.363.154-.227.163-.817.993-.024.149-.151.388-.173.271-.082-.217-.062-.234-.136-.07-.134.139-.062.392-.038,1.416-.086.6-.169.443-1.335.873-.406.7-1.642,1.283-.4.218-.378.111-.389.035-.309.173-2.832,3.307-.293.541-.125.166.082.2-.022.154-.21.312.313.2.291-.139.286-.335.3-.191,1.144.119.453-.119.149-.115.113-.153.144-.133.24-.059.238.074.391.314.44.154.282.347.246.034.149-.07.15-.123.257-.273-.245-.36.005-.437.195-.383.325-.2-.049-.142-.077-.09.724-.838.385-.342.418-.225,1.418.02.406-.246.34-.209,1.475-.461,1.157.2.556-.052.525-.4.161.377.209.051.231-.163.234-.266.064.134.065.056.15.065-1.216.873-.128.139-.045.232v.474l.093.224.161.521.049.524-.233.239-.355.117-.058.273.1.313.39.826,1.559,1.909.344-.081.351-.284.54-.061-.264.34-.834.652-.218.08-.077.055-.048.139-.1.457-.07.09-.364.259-.429.642-.332.828-.069.835.231.515.932,1.286.314.26.557-.1,1.053-.376h.552v.25l-1.052.783-.356.129-.208-.053-.444-.23-.164.036-.128.282-.027.4.044.406.111.311-.232.472-.227.689-.17.765-.183,1.41-.275.75-.6,1.17-1.185,1.7-2.422,2.091-.376.111-.418.031-.334.093-.293.19-.607.734-.4.366-.4.278-.6.191-.139.189-.095.234-.133.166-.236.094-2.523-.094-.78.385.043.978-.673-.537-.279.008-.375.417-.5.826-.294.362-.4.278-.679.115-.159.129-.006.3.092.373.032.33-.186.133-.445-.07-.785-.31-.386-.066.14.447-.588.248-.392-.006-1.089-.594-.233-.057-.556-.038-.337.066-.225.174-.031.223.246.215v.2H546.6l-.061.849-.645.565-.834.314-.626.092-.266.147-.615.635-.38.143-.735.061-.192.19.161.424v.2l-.2.123-.051.1.038.111.07.143v.246l-.142.084-.139.118h.4l1.136-.228.292-.219.363.246.8.109.366.314.139-.221.282.264.17.41.08.49.024.51.107.826-.065.319-.321.325-.353.154-.684.134-.292.284-.239.338-.224.167-.292.065-.435,0,.4.121,1.011.778v.2l-.044.355.289.014.236-.287-.2-.533.361-.139,2.843.383.444-.017,1.582-.369.306-.328.07-.367-.289-.269.116-.482-.094-.3-.246-.139-.334,0,.252-.16,1.149-.1.592-.246.239-.166v.242l-.78.2-.339.672.118.793.579.584v.209l-.266-.149-.209.051-.5.344-.984.2-.688.4-.279.066-.293-.047-.533-.184-.3.012.044.107.051.248.045.112-1.567-.227-.129.227.392.451,1.007.257.3.635-.185.348.491.361,1.33.432.213.171.106.031.182-.08.17-.316.383-.17.187-.24.16-.291.184-.245.313-.214.31-.074,1.82.042.354-.362.139-.107.278.243.184.058.375-.929.048-.25v-.124l.045-.065.187-.028.044-.814.668-.487.854-.231.6-.063,1.534.209.78-.029.7-.383-.307-.3-.163-.316.07-.227.4-.07.173.243.175.156.209.049.127-.07.165-.27.113-.111.159-.348.131-.1.139.228v.295l-.1.306-.119.227-.061.07.188.4.314.234.378.093.372-.025-.2.291-.37.047-.84-.11.26.6.494.584.552.438.442.173,1.606-.248.3-.2,1.1.626.807.084.235-.024.166-.122.238-.3.1.063.017.234-.008.214-.435.74-.973.241-1.044.07-.632.209-.138-.143-.139-.105v-.2h.129l-.129-.246-.131.184-.221.41-.077.1-.7.223.006.509.18.417.052.344-.389.3.047.236.036.09.07.117.357.024,1.208.519.261.006.077-.339.185.013.225.154.209.057.2-.125.287-.348.213-.2.216-.1.193.011.511.125.208.16.139.043.091-.07.192-.307.065-.07.134.024.161.074.138.1.055.129.057.17.115-.059.1-.149v-.086h.846l-.15-.283-.209-.312-.156-.32.02-.309.181-.2.273-.177.289-.119,2.2-.269.269.074.18.195.321.622.192.246.352.236.168.174.246.435.227.541.2.616.149.642-.053.022-.061.018-.038.057.028.146.214.326.4.4.458.233.376-.178.285.024,1.195,1,.96,1.322.373.214,5.1.469,1.438-.608.307.042.389.129.36-.417.145-.7-.255-.7.124-.09.287-.039.145-.093.093-.154.117-.381.07-.139.528-.545.348-.254.308-.108,1.188-.758.109-.209.535-.671.19-.148.106.105.111.229.161.233.263.107,1.73-.125.863-.308,1.138-.789.966-.226.4-.314.573-.678,1.336-1.6.186-.32.192-.209,1.215-.8.287-.4.249-.445.278-.358.388-.149.4-.035.473-.154.365-.338.091-.613.3.295.053.369-.161.381-.329.3-.876.31-.353.2-.7.954-1.161,1.228-.125.191-.139.278-.113.3-.046.27-.07.293-.184.146-.208.092-.17.135-1.8,3.1-.418.43-.429.179-.487.042-.4.123-.362.209-.359.3-1.387,1.847-.753.737-.652-.139-.444.469.31.326-.131.3-.284.295-.157.3-.017.5-.076.3-.208.092-.4-.123.231.389.057.618-.008,1.217.065.307.07.173.04.216-.037.412-.07.242-.349.668-.278-.221.278-.463-.153-.228-.576.4-.8.119-1.35-.07-.738.1-1.461.463-2.333.106-.4-.19-.6-.579-2.556-.593-1.64.054-2.644-.7-.369.033-.65.348-.446.086H570.5l-.387.07-.764.291-3.732.348-1.552.622v.2l.227.154.15.274.032.348-.131.348-.151.055-.685-.055.139.278.347.531.07.2.044.236.244.879.127.313-.213.124-.127.178-.093.19-.113.191-1.38,1.547-.306.219-.417.131-.243-.027,18.7,12.471.011-.01-.179-.431-.266-1.1-.257-.291-.023-.151.023-.148.07-.07.119.028.064.073.045.067.056.034.086.129.264.765.252.481.279.264.341.113.459.024,1.482-.66.309-.437.188-.424.231-.326.835-.205.687-.313.389-.069.232.049.388.174.209.018.2-.088.339-.289.1-.062.456-.392.238-.074.773.22.487-.059.723-.479,1.538-.36.458.02,3.51,1.316,4.272,3.289.474.8.015,1.207h.125l.29-.449.216-.506-.052-.406-.513-.172-.188-.307.114-.686.252-.682.239-.314.765-.249.433-.069.7.442,3.782.424,1.536.727.347.076,1.658-.038.378-.172-.043-.481.708-.881-.113-.041-.3-.19.146-.548-.139-.247-.3-.066h-.335l-.377-.086-.24-.242-.43-.794-.226.191-.229.147-.241.086-.268.038.709-1.157.184-.161.1.091.175.427.069.117.163.042.536-.042.785.221.07.174.034.332.091.22L611,334.3l.311-.368.359-.287.385-.209.41-.129.458-.024,1.289.24.374-.088.786-.417.451-.129.454-.006,1.4.264.439.294.4.118.039-.008.044-.125.664-1.223.668.125.089-.013.232-.183.525-.192.932-.173v-.195l-.135-.129-.148-.119.3-.1,1.309-.118.458-.165.063-.381-.186-.437-1.592-1.789-.5-.606-.256-.045-.376-.238-.2-.105v-.2l2.6,1.461.769.935.269.146.675.236.477.417.663.348.132.3.145.2.33.2.376.148.265.018.266-.253.076-.348-.052-.626-.118-.2-.718-.605.305-.093,1.275-.1.371.2-.127.437-.374.551-.195.57.413.469.545-.07.278-.611.183-.775.264-.572.386-.111.634.008.643.121.414.221-.209.438.147.039.252-.144.1-.112.238.131.4.4.2.156v.2l-.586.239-.273.209-.113.332.148.19,1.862,1.194.463.156.394-.223.095-.332-.138-.606.114-.282.189-.079.172.11.168.149.179.063,3.344-1.121h3.5l2.61-.942.75.3.547-.3.67.07,4.244,1.554.869.06.375.125.355.347.19.111.718-.014.226.045.934.352.4.063.766-.013.758-1.077.7-.463.039-.122.205-.347.22-.295h.1l.757-.341,4.425-.947.823-.369,2-1.958.808-.27,2.922.965.7-.282-.214-1.252-.056-.834.2-.381,1.047-1.521.8-.739.418-.284.4-.105,1.337-.038.4-.166.154-.16.176-.233.2-.2.239-.085.444.029.062,0-17.232-11.49-.524.089.3-.168.067-.025-55.509-37.012h82.971l-.02-.365-.127-.515.131-.709-.265-.993-.373-.98-.383-1.588-.486-.828-.6-.676-5.066-3.9-2.476-1.274-6.3-1.53v.23l.265-.026.253.029.241.094.216.153-.927.432-.966-.247-.928-.449-.814-.217H665.7l-.436-.1-.455-.191-.451-.111-.412.154.151.252-.988-.042-1.1.217-1.008.471-.7.739-.279.574-.316.826-.261.911-.112.819-.262.445-.534.607-.411.626.108.527v.227l-.3-.152-.574-.825-.332-.192-.814-.079-.431.06-.363.273-.5-.611-1.052-1.631-.488-.332-.277-.109-.574-.473-.264-.114-1.058.254-.621-.042-.035-.412.273-.474.321-.22.481-.192.426-.46,1.609-2.383.278-.214.38-.161,1.822-1.854.334-.213.408-.09.225-.092.124-.239.426-1.773-.01-1.453-.286-1.28-1.669-4.607-.087-.467-.228-.534-.321-.48-.347-.267.15-.231-.588-.426-.182-.059-.117-.135-.058-.308-.04-.36-.062-.252-.334-.389-.358-.162-.386-.088-.394-.182-1.954-1.6-.953-1.2-.291-.121-.718-.113-.354-.253-.626-.755-.914-.474-1.46-2.29-.389-.69-.568-.244-3.656.682-.563.449-.322.124-.307-.2-.218-.238-.831-.6-.477-.128-.616.037-.562.27-.31.542-.157-.166-.17-.138-.18-.1-.187-.07,1.392-.941.433-.139,1.182.139.056.081.506.5.145.065.691-.166h1.623l2.566-.876.916.148.716.527,1.943,2.544.357.29.417.226.47.139.5.051.43-.11.791-.5.4-.092.441.165.887.653.417.144.325.25-.093.584-.447,1.06.444-.363.114-.129.25-1.113-.324-1.133-3.644-5.454-2.163-3.385-.358-1.043-.584-2.263-.449-.974.5-1.379.626-.723,1.808-1-.739-.67-2.5-1-.541-.58-.042-.139-.145-.923-.157-.321-.469-.241-.244-.246-.2-.153-.835-.22-.157-.185-.383-.566-.171-.186.055-.139.087-.355-.209-.08-.162-.177-.111-.23-.074-.231-.008-.7-.25-.881-.347-.835-.306-.556-.286-.289-.677-.5-.215-.295-.062-.357.039-.278-.024-.313-.245-.486-.575-.581-4.59-2.921-4.195-1.313-.99-.665-.861-.121-.4-.143-.344-.3-.357-.473-.176.992-.123.184-.246.053.037-.079-.052-.172-.08-.168-.058-.086-.1-.024-.031.088-.016.118-.054.054-.2-.017-.145-.066-.1-.143-.054-.254.487-.219.2-.175.166-.3-.166-.191-.12-.23-.081-.261-.049-.282-.115-.209-.032-.108-.006-.162h.417v-.259l-1.079-.492-.312-.234-.713-.941-.437-1.107-1.2-4.406.055-.321-.149-.131-.049-.314-.023-.789.009-.209.037-.159-.019-.214-.154-.385-.57-.6-.07-.1-.229-.168-.139-.41-.094-.449-.107-.314-.183-.319-.335-.9-.07-.3-.029-.1-.077-.061-.261-.116-.08-.07-.07-.219-.184-.758-.07-.77-.1-.259-.351-.547-.087-.367.093-.313.139-.3.054-.352-.125-.365-.2-.189-.1-.224.163-.469-.465-.515-.256-.394-.111-.417-.049-.24-.08-.221-.038-.236.091-.264.076-.154.058-.151.04-.162.026-.164-.061-.636-.5-.92-.125-.778,0-.314.019-.2.106-.584.033-.348-.07-2.412-.09-.432-.145-.147-.2-.123-.1-.172.17-.313v-.246l-.39-.374-.178-.111V169.6l.279-.231-.213-.246-.144-.262-.036-.259.114-.234v-.248L615.7,167.11l-.439-.055-.719.2-.249-.147v-.224h.417l-.182-.514-.247-.306-.262-.131-.225-.03-.079.078-.09.18-.129.172-.19.062-.1-.129-.093-.257-.113-.26-.437-.307-.209-.449-.3-.838-2.692-3.472-.275-.543-1.164-2.3-.391-.451-.439-.182-.164-.111-.048-.27-.028-.334-.107-.3-.183-.093-3.288-.646-.874-.478-1.3-1.1-.781-.252-.831-.593-.3-.321-.139.168-.208.186-.085.148-.308-.224-.52.1-.287-.106.106-.19.186-.6-.371-.234-.586-.814-.388-.174-3.419-.25-.418.186-.6.724-.375.335.093.144.062.163.111.437-.506.066-.349.449-.338.568-.475.412-1.543.683-1.278.129-.255-.045-.124-.135-.367-.52-.146-.113-3.705-.308-.347-.3-.216-.293-.209-.015-.353.173h-.965l-3.507-.995-.457-.006-1.153.252-.244-.09-.136-.215-.1-.243-.145-.195-.143-.016-.39.078-.175-.062-.105-.269-.7-1.252-.168-.1-.175-.284-1.222-.865v-.225l.417.013.279.188.431.547.75.727.721.514.787.268,1.808-.031,3.3.974.8.058.8-.139.808-.379.707-.487.409-.188,1.429-.076.3-.209.23-.537.284-1.228.219-.393.41-.146.334-.2,1.135-1.3,1.085-.773.155-.339.213-.27.5-.139.973.019,1.258.666.5.084.46-.131,1.3-.891.983-.225.483-.231.374-.727,1.086-1.068V142.7l-.743-.654-.162-.1-.7-.647-.445-.232-1.865-.147-.14-.258-.147-.079-.182-.033-.23-.107-.042-.139-.088-.5-.078-.113h-.5l.328-.375.271-.55.15-.658-.038-.7-.246-.459-.723-.058-.36-.36-.354-.227-.492.088-.437.278-.188.348-.209.246-4.07,2.075-.793.2-.86.517-.428.117h-.859l-.353-.133-.247-.348.884.293.858-.361,2.126-2.178.707-.549.792-.367,6.037-.873.255.079.161.149.144.1.2-.09.392-.974.183-.288.779-.387.418-.3.347-.778,1.91-1.375.318-.4.213-.641.366-.4.113-.259-.012-.217-.127-.508v-.289l.2-.549.278-.375.247-.451.226-1.629.289-.611.364-.43.349-.308,1.134-.734.332-.4.492-.88.55-.784.7-.561.3-.417.124-.672.082-.192.376-.49.1-.209v-.455l-.1-.275-.123-.228-.055-.316.266-1.344.626-1.347,1.843-2.968.336-.709-.062-.323-.388-.306-.052-.7.111-.762.486-1.957,1.317-3.5.522-.824,2.137-2.009.049-.524.357-.68.835-1.149.474-.41.139-.236-.255-.105-.19-.156-.023-.323.138-.285.291-.033-.577-.666-.218-.418.085-.474v-.234l-.319-.607-.113-.67-.07-.689-.183-.654L611.293,91.1l-.231-.508-.144-.16-.247-.012-.339.3-.247-.033-.177-.213-.18-.352-.119-.33-.018-.149-2.255-.077-.329.077-1.222.929-.527.115-.412-.138-.9-.563-.432-.081-.177.078-.184.154-.149.2-.064.217-.11.182-.247-.07-.393-.246-.187.069-.348.341-.229.131-.223-.059-.183-.171-.156-.062-.149.291-.963-.5-.369-.042-.265.174-.145.287-.163.058-.326-.52-.64.033-1.744-.609-.7.338-.209-.229-.165.029-.168.127-.23.08-.209-.084-.208-.375-.139-.088h-3.222l-.339.127-1.26.918-.828.262-.892-.031-2.683-.933-1.522-1.011-2.541-.106-.248.07-.542.34-.262.1-.25-.051-.2-.113-.183.031-.2.39.114.442-.193.487-.326.414-.295.226-.388.08-.407-.051-.745-.267.417,1.015-.311.077-.278.121-.262.028-.266-.226.163-.182.1-.177.151-.417-1.219.283-3.117,2.338-.626.195-1.96-.195-1.872.3-.566-.041.765.7.234.417-.369.184-.29.079-.32.209-.3.291-.381.568-.214.11-.462.04-.015.106-.153.25-.33.421-.43.219-.369-.023-.738-.2.238-.3.229-.386.371-.869-.25-.19-.278-.066-.588.021v-.283h1.112l.472.147.139-.054-.19-.352.347-.453.394-.231.946-.094-.081-.079-.07-.1-.062-.139-.066-.195.713-1.155.6-.473.59-.738.424-.792-.1-.48-.311.052-.885.565-.26.284-.327.26-.445.012-1.028-.229-.268-.344-.237-.105-.168.019-.872.455-.785.824-.93.572-.247.348-.209.375-.284.388-.3.3-.613.264-.278.216-.1-.029.17-.588.164-.379.184-.25,1.322-1.353.29-.119.31-.25.139-.527.15-.44.348-.014.381.07,1.329-.375.52-.035.272-.119,1.575-1.437.719-.267.543.533-.25.6.1.376.323.152.4-.084.266-.278.539-.826.466-.378,2.772-3.662.164-.334.054-.626-.133-.374-.253-.038Zm-7.949-.561.257.072,1.171.607.574.017.165-.139.354-.495.19-.149.311,0,.607.241h.321l-.088-.434.1-.4.424-.714-.433-.746-.139-.172-.2-.1Zm3.866-2.577.232.131.01-.293Z" transform="translate(-523.084 -51.997)" fill="#f0f0f0"/>
  <path id="Path_7838" data-name="Path 7838" d="M537.529,210.744l.017.411.1.816-.005.75-.2.375-.778.923-.572.48-.11.7.044.813.239,1.536.219.436.359.138.594.008.236-.07.458-.339.217-.1.24.012.4.2.2.051.48-.1.456-.234.4-.321.334-.348.676-.952.2-.545-.24-.233-.017-.146-.33-.814-.19-.269-.185-.191-.208-.088-.255.037v-.221l.473-.3.326-.486.456-1.208.09-.081.09.042.069-.018.028-.289-.012-.384Zm22.469,0,.058.274-.175.974-.492.714-1.358.646-.66.6-.193.409-.168.834-.122.348-.165.213-.371.314-.678.845-.113.219-.035.337.052.777-.017.347-.079.32-.468,1.205L555,220.3l.006.381-.041.118-.209.055-.1.081-1.321,1.808-.838.545-.4.41-.17.659-.056.724-.138.483-.362.868-.083.31-.043.236-.011.789.064.417.287.7.069.342.115.328.734,1.486v.239l-.083.124-.07.14-.357.376-.363-.061-.338-.316-.27-.387-.1-.325.033-.855-.015-.4-.1-.369-.15-.339-.305-.5-.1-.2-.193-.4-.209-.185-.094.412-.1.11-.226.033-.43-.028-.289.282-.138.642-.06,1.281.1,1.408.376,1.257.588,1.074,1.941,2.35.41.189.2.209.129.454.089.486.091.323.134.129.168.07.381.045-.088.265v.244l.083.236.154.221-.241.323-.017.584.126.547.195.25.422.11.874.47.441.118-.262-.575-.009-.174.006-.327.107-.637-.006-.306-.586-.509-.324-.835-.232-.835-.14-.383-.209-.154-.158-.363-.1-.41-.037-.3v-.258l.024-.182.081-.208.179-.313.308-.451.408-.436.465-.363.49-.223.776-.013.438.192.377.995.441.278.92.26,2.406,1.508.676.664,1.182,1.829.182.139.726-.018.193.08.517.4.432.19.465.07.215-.073.134-.165.1-.166.111-.075.139-.291-.105-.666-.066-.737.257-.517-.291-.51.1-.433.179-.4-.065-.454-.246-.332-.26-.186-.293-.08-.328-.018-.133-.236-.161-.516-.186-.829.056-.382.138-.444.161-.364.124-.145.328.082.138.247.1.389.193.506.178.25.236.188,1.521.734.307.038.328-.166.5-.63.3-.193-.178,1.415.719,1.2,1.043.687.8-.144-.2-.556.07-.6.232-.5.3-.263.008.163.283.125.042.364-.083.459.041.36-.008.031-.058.128-.057.1.049.09.07.054.07.017.082.037v.266l.635.051.969-.138,1.6-1.217,1.063-.482.2-.164-.7-.7.278-.226.135-.036-.044-.139-.093-.369.316-.308.242-.4.076.113.035.1.028.266-.1-.159-.1-.052-.231.433.107.225.128.144.152.024.187-.129-.07-.07-.024-.011-.045-.182,1.447.234.442-.749.526-.082,1.906.184.336-.2.233-.573.037-.578-.039-.764-.1-.705-.163-.381.268-.968.583.525.319.125.348-.164-.035-.152-.011-.031-.02-.007-.063-.07.293-.119.3.1.319.18.342.1,6.5.482,1.726-.467.1-.024.5.226v.266l-.385-.155-.316.131-.312.2-.391.063v.244h1.4l-.361.259-1.7.513-.414-.033-.758-.25-.16-.131-.117-.152-.152-.125-.254-.081-1.285.389-.306.24-.528.584,1.021.52.258.208-.835.456-.221.022-.33-.127-.217-.264-.239-.186-.4.1-.479.582-.4.963-.666,2.075.188.6-.177.67-.325.588-.258.335-.216.154-.45.178-.168.148-.139.308-.287.881-.687,1.6-.543,2.743-.429,1.218-.1.082-.218.251-.149.264.209.243.215.5.1.118.335.186,1.921,2.7.478.431.7,1.46.486.242.058.07.042.357.148.5-.037.311-.088.287-.051.271.11.556.271.469.607.765.736,1.316.443.447.424-.187.323-.07.469.04.3-.165-.18-.669.2-.881.171-.364.319-.183-.035.7.047,1.182-.17,1.018-.676.208v.243l.312.264.008.505-.109.591-.062.534.2.248.238.152.278.074.325.025.187.174.721,1.009.017-.394-.06-.469.043-.39.556-.311.209-.338.348-.727.606-.782.088-.283.066-.385.115-.458.063-.487-.091-.474.273-.139.233.148.185.342.146.4-.187.348.123.556.279.509.274.225.918-.07.385-.241.161-.525.159-.367.375-.3.73-.4.608-.488.289-.417.08-.522h.139l.017.671-.314.616-.458.442-.435.177.07.325.779,1.558.344.513-.392.918-.239.347-.656.269-.278.328-.4.746-.175.177-.214.17-.139.2.043.271.321.744.1.094.626-.066.355-.144.357-.265-.1.556-.7.734.226.385-.146.075-.187.129-.155.178-.07.209-.07.154-.156-.062-.267-.209-.334.038-1.878.717-.472.3-.328.6.24.956-.233,2.6.146,1.156.567.816.747.337,1.754.024-.258.359-.819.584-.178.358-.168.122-1.086,1.415L591.273,278l-.17.384h61.559l-.319-.05-.354-.253-.626-.755-.914-.475-1.461-2.29-.388-.69-.568-.243-3.656.682-.563.449-.322.123-.307-.2-.218-.238-.83-.6-.478-.127-.616.037-.562.27-.309.541-.158-.166-.17-.139-.18-.1-.187-.069,1.392-.942.433-.139,1.183.139.056.081.506.5.145.065.691-.167h1.623l2.567-.876.916.149.716.526,1.943,2.545.357.289.417.226.47.139.5.051.429-.109.792-.5.4-.093.441.166.886.652.417.144.325.25-.093.584-.261.619h.328l.045-.05.25-1.114-.324-1.133-3.644-5.454-2.163-3.385-.358-1.043-.584-2.263-.449-.974.5-1.379.626-.723,1.808-1-.739-.67-2.5-1-.54-.58-.043-.139-.144-.922-.157-.322-.469-.24-.244-.246-.2-.154-.835-.22-.158-.186-.383-.565-.171-.186.055-.138.086-.356-.208-.08-.163-.177-.11-.23-.074-.231-.008-.7-.25-.881-.347-.835-.307-.556-.287-.289-.677-.5-.214-.294-.062-.357.038-.278-.023-.312-.245-.486-.574-.581-4.591-2.922-4.194-1.312-.99-.666-.862-.12-.4-.143-.344-.3-.358-.474-.176.993-.123.183-.246.053.037-.079-.052-.172-.08-.168-.058-.086-.1-.024-.031.088-.016.118-.055.054-.2-.017-.145-.067-.1-.143-.054-.253.487-.219.2-.176.166-.3-.166-.192-.12-.23-.081-.26-.049-.283-.115-.209-.033-.107-.006-.162h.417v-.26l-1.08-.492-.312-.234-.713-.942-.438-1.107-1.2-4.406.055-.321-.148-.131-.049-.314-.023-.789.008-.209.037-.16-.019-.214-.154-.386-.57-.6-.07-.1-.228-.168-.139-.409-.094-.45-.107-.314-.183-.319-.334-.9-.069-.3-.029-.1-.077-.06-.261-.116-.081-.07-.07-.219-.184-.758-.07-.77-.1-.26-.352-.547-.086-.367.092-.313.139-.3.055-.352-.125-.366-.2-.189-.1-.224.163-.468-.464-.515-.257-.394-.111-.417-.049-.241-.08-.22-.038-.237.09-.264.076-.154.059-.151.04-.162.026-.164-.061-.636-.5-.92-.125-.778,0-.314.018-.2.106-.585.033-.347-.07-2.413-.09-.432-.145-.146-.182-.11Z" transform="translate(-527.01 -91.666)" fill="#d80027"/>
  <path id="Path_7839" data-name="Path 7839" d="M613.866,93.632l-1.222.929-.528.115-.412-.139-.9-.562-.432-.082-.178.079-.183.154-.149.2-.064.217-.11.182-.247-.07-.393-.246-.188.07-.348.341-.23.131-.223-.059-.14-.131L553.275,131.2l1.991-.44-.348.247-1.644.38-.8.535-.424.126-.032-.01-4.207,2.8-.519,1-.056.145-.07.31-.078.177-.124.157-.094.08-.076.119-.063.273.278.038.331.378.242.115.247-.07.443-.373.225-.088.341-.273.085-.026.409.026.227-.054.684-.431-.214.331-.255.191-.52.239-.974.761-.378.167-.461.012-.5-.2-.487-.487-.115.524-.723,1.762.279.233.386-.8.241-.328.277-.135.335,1.41.329.239.572-.514,2.169.506.869-.106.225-.239.474-.792.834-.755.314-.57.225-.656.268-.545.448-.25-.429.607-.67,1.513-1.294,1.774-.549.476-.681.168-1.648-.47-2.055.182-.683.337-.223.314h40.406l26.435-17.623.03-.04.1-.209v-.454l-.1-.275-.123-.229-.055-.315.266-1.344.626-1.347,1.844-2.968.336-.709-.062-.323-.388-.306-.053-.7.112-.762.486-1.956,1.317-3.5.522-.824,2.137-2.009.049-.524.357-.68L620.7,103l.474-.411.139-.235-.256-.105-.189-.156-.024-.323.139-.284.291-.033-.577-.666-.218-.418.085-.474v-.235l-.319-.607-.113-.67-.069-.689-.184-.654-1.733-1.952-.231-.508-.144-.16-.247-.012-.339.3-.247-.034-.177-.213-.18-.351-.12-.331-.017-.148-2.255-.077Z" transform="translate(-529.943 -55.987)" fill="#d80027"/>
  <g id="Group_6060" data-name="Group 6060" transform="translate(0 0)">
    <g id="Group_6059" data-name="Group 6059" clip-path="url(#clip-path)">
      <path id="Path_7840" data-name="Path 7840" d="M735.495,68.753V133.68h-97.4Z" transform="translate(-558.101 -48.436)" fill="#2e52b2"/>
    </g>
  </g>
  <path id="Path_7842" data-name="Path 7842" d="M613.866,93.632l-1.222.929-.528.115-.412-.139-.9-.562-.432-.082-.178.079-.183.154-.149.2-.064.217-.11.182-.247-.07-.393-.246-.188.07-.348.341-.23.131-.223-.059-.14-.131L553.275,131.2l1.991-.44-.348.247-1.644.38-.8.535-.424.126-.032-.01-4.207,2.8-.519,1-.056.145-.07.31-.078.177-.124.157-.094.08-.076.119-.063.273.278.038.331.378.242.115.247-.07.443-.373.225-.088.341-.273.085-.026.409.026.227-.054.684-.431-.214.331-.255.191-.52.239-.974.761-.378.167-.461.012-.5-.2-.487-.487-.115.524-.723,1.762.279.233.386-.8.241-.328.277-.135.335,1.41.329.239.572-.514,2.169.506.869-.106.225-.239.474-.792.834-.755.314-.57.225-.656.268-.545.448-.25-.429.607-.67,1.513-1.294,1.774-.549.476-.681.168-1.648-.47-2.055.182-.683.337-.223.314h40.406l26.435-17.623.03-.04.1-.209v-.454l-.1-.275-.123-.229-.055-.315.266-1.344.626-1.347,1.844-2.968.336-.709-.062-.323-.388-.306-.053-.7.112-.762.486-1.956,1.317-3.5.522-.824,2.137-2.009.049-.524.357-.68L620.7,103l.474-.411.139-.235-.256-.105-.189-.156-.024-.323.139-.284.291-.033-.577-.666-.218-.418.085-.474v-.235l-.319-.607-.113-.67-.069-.689-.184-.654-1.733-1.952-.231-.508-.144-.16-.247-.012-.339.3-.247-.034-.177-.213-.18-.351-.12-.331-.017-.148-2.255-.077Z" transform="translate(-529.943 -55.987)" fill="#d80027"/>
  <path id="Path_7843" data-name="Path 7843" d="M580.6,356.658l.68.938.314.26.556-.1,1.053-.376h.552v.25l-1.052.783-.356.129-.208-.053-.444-.23-.164.037-.128.281-.027.4.045.406.111.311-.232.472-.227.689-.17.765-.183,1.41-.276.75-.6,1.17-1.185,1.7-2.421,2.091-.377.111-.418.031-.334.093-.293.19-.607.734-.4.366-.4.278-.6.191-.139.189-.095.234-.133.166-.236.094-2.523-.094-.78.385.031.705,31.349,20.9.058-.19.07-.139.529-.545.348-.254.308-.108,1.188-.758.109-.209.534-.671.19-.148.106.105.111.229.161.233.263.107,1.73-.125.863-.308,1.138-.789.966-.226.4-.314.573-.678,1.336-1.6.186-.32.193-.209,1.214-.8.287-.4.249-.445.278-.358.388-.149.4-.035.473-.154.365-.338.091-.613.3.295.053.369-.161.381-.329.3-.876.31-.353.2-.7.954-1.161,1.228-.125.191-.139.278-.113.3-.046.27-.069.293-.184.146-.208.092-.17.135-1.8,3.1-.418.43-.429.179-.487.042-.4.123-.362.209-.359.3-1.387,1.847-.753.737-.652-.139-.092.1,30.54,20.358.221-.081.931-.173v-.195l-.135-.129-.148-.119.3-.1,1.309-.118.458-.165.063-.381-.186-.438-1.591-1.789-.5-.606-.256-.044-.376-.238-.2-.105v-.2l2.6,1.461.769.936.269.146.675.236.477.417.663.348.132.3.145.2.33.2.376.148.265.018.266-.253.077-.348-.053-.626-.118-.2-.718-.605.305-.093,1.275-.1.371.2-.127.438-.373.551-.195.57.414.469.545-.07.278-.611.183-.775.264-.572.386-.111.634.008.643.121.415.221-.209.437.147.039.253-.144.1-.112.238.131.4.4.2.156v.2l-.586.239-.273.209-.113.332.148.19,1.862,1.194.463.156.394-.223.095-.332-.139-.606.114-.282.189-.079.173.11.168.149.179.063,3.344-1.121h3.5l2.609-.942.75.3.547-.3.67.07,4.243,1.554.869.06.375.125.355.347.19.111.718-.014.226.044.934.352.4.063.766-.013.758-1.077.7-.463.039-.122.205-.347.22-.295h.1l.757-.341,4.425-.947.478-.214-84.413-56.263Z" transform="translate(-537.033 -136.092)" fill="#d80027"/>
</svg>
